<?xml version="1.0" encoding="utf-8"?>
<svg version="1.1" id="Layer_1" xmlns="http://www.w3.org/2000/svg" xmlns:xlink="http://www.w3.org/1999/xlink" x="0px" y="0px"
	 width="260px" height="260px" viewBox="0 0 260 260" style="enable-background:new 0 0 260 260;" xml:space="preserve">
	<path d="M97.1,213.7c-2.9,4.4-6.1,8.4-9.3,12c-11.3,12.3-22.2,20-34.5,26.3c-4.1,2.1-10.9,4.9-15,6.2c-1.9,0.6-1.6,2.3,0.7,1.9
		c4.6-0.9,10.5-2.5,16.1-4.3c23.4-7.4,46.3-20.6,64.6-37.7c18.2-17,38.2-42.3,48.8-78.3c0.3-0.9-0.8-1.3-1.6-1
		c-13.5,5.6-27.8,8.8-44.3,8.8c-1.4,0-2.3-0.1-3.6-0.1c-1.1,0-1.4,0.6-1.4,1.6C117.4,173.2,109.9,195.1,97.1,213.7z"/>
	<path d="M118.7,132.7c1.2,0.1,2.2,0.1,3.5,0.1c56,0,100.9-45.4,100.9-101.8c0-8.8-1.9-21.1-4.9-30.2c-0.3-0.9-1.5-1-1.6,0.1
		c-1.3,10.8-4.7,37.8-27.1,64.1c-20.5,24-48.5,36.9-73.6,39.6c-0.8,0.1-1.3,0.8-1.1,1.6c1.4,7.8,2.6,16,2.6,24.4l0,0.9
		C117.4,132.2,117.9,132.6,118.7,132.7z"/>
	<path d="M111.7,90.3c36.8-4.6,61.6-31.9,53.5-58.9c-0.2-0.7-1-1-1.6-0.3c-21,20.2-46.3,19.9-46.3,19.9L76.2,40
		c-1-0.3-1.8,0.6-1,1.3c15.5,12.7,27.2,28.8,34.5,47.9C110.1,89.9,110.9,90.4,111.7,90.3z"/>
	<path d="M96.5,172.3c-27.7-11.3-50.1-36.8-59.2-59c-0.8-1.8,0.1-3,1.4-1.7c11.8,12.1,27.9,23.3,45.2,29.3c5.1,1.8,10.5,3.4,16,4.5
		c0.8,0.1,1.2,0.6,1.2,1.5c0,2.5-0.1,8-0.9,13.6c-0.8,5.5-1.6,9.4-2,11.2C98,172.4,97,172.4,96.5,172.3z"/>
</svg>
