<?xml version="1.0" encoding="utf-8"?>
<!-- Generator: Adobe Illustrator 19.0.0, SVG Export Plug-In . SVG Version: 6.00 Build 0)  -->
<svg version="1.1" id="Layer_1" xmlns="http://www.w3.org/2000/svg" xmlns:xlink="http://www.w3.org/1999/xlink" x="0px" y="0px"
	 width="85px" height="49.6px" viewBox="-274.6 372.2 85 49.6" style="enable-background:new -274.6 372.2 85 49.6;"
	 xml:space="preserve">
<style type="text/css">
	.st0{fill:#FFFFFF;}
</style>
<g id="_x3C_Layer_x3E_">
</g>
<rect x="-274.5" y="406" class="st0" width="84.7" height="1.2"/>
<g>
	<path class="st0" d="M-199.4,372.2h-3.1l-9.7,29.1h3.5l3.8-11.4h7.9l3.8,11.4h3.6L-199.4,372.2z M-203.8,386.6l2.9-8.6l2.9,8.6
		H-203.8z"/>
	<path class="st0" d="M-274.6,401.3h3.5l3.8-11.4h7.9l3.8,11.4h5.4l3.8-11.4h7.9l3.8,11.4h3.5l-9.7-29.1h-3.1l-8.9,26.8l-8.9-26.8
		h-3.1L-274.6,401.3z M-266.2,386.6l2.9-8.6l2.9,8.6H-266.2z M-245.2,386.6l2.9-8.6l2.9,8.6H-245.2z"/>
	<polygon class="st0" points="-216.1,372.4 -216.1,386.6 -227.4,386.6 -227.4,372.4 -230.7,372.4 -230.7,401.3 -227.4,401.3 
		-227.4,389.9 -216.1,389.9 -216.1,401.3 -212.8,401.3 -212.8,372.4 	"/>
</g>
<g>
	<path class="st0" d="M-274.5,412.7h1.1l1.7,6.5h0l1.7-6.5h1.1v7.3h-0.6v-6.7h0l-1.9,6.7h-0.6l-1.9-6.7h0v6.7h-0.6V412.7z"/>
	<path class="st0" d="M-264.4,418.2c-0.1,1.2-0.7,1.9-1.7,1.9c-1.1,0-1.8-0.8-1.8-2.8c0-1.9,0.7-2.8,1.8-2.8c1.2,0,1.7,0.8,1.7,2.6
		v0.2h-2.9v0.3c0,1.6,0.5,2,1.1,2c0.6,0,1-0.5,1.1-1.4H-264.4z M-265,416.8c0-1.3-0.4-1.8-1.1-1.8c-0.7,0-1.1,0.5-1.1,1.8H-265z"/>
	<path class="st0" d="M-263.5,414.6h0.5v0.8h0c0.3-0.6,0.8-0.9,1.4-0.9c0.6,0,1,0.4,1.1,0.9h0c0.2-0.6,0.7-0.9,1.4-0.9
		c0.7,0,1.2,0.4,1.2,1.4v4.1h-0.6v-4c0-0.6-0.3-1-0.8-1c-0.6,0-1.1,0.6-1.1,1.4v3.6h-0.6v-4c0-0.6-0.3-1-0.8-1
		c-0.6,0-1.1,0.6-1.1,1.4v3.6h-0.6V414.6z"/>
	<path class="st0" d="M-256.8,412.7h0.6v2.7h0c0.1-0.6,0.6-0.9,1.2-0.9c1.2,0,1.7,1,1.7,2.8c0,1.9-0.5,2.8-1.7,2.8
		c-0.6,0-1.1-0.4-1.3-1h0v0.9h-0.5V412.7z M-255,419.6c0.6,0,1.2-0.3,1.2-2.3c0-2-0.6-2.3-1.2-2.3c-0.6,0-1.2,0.3-1.2,2.3
		C-256.2,419.3-255.6,419.6-255,419.6z"/>
	<path class="st0" d="M-249,418.2c-0.1,1.2-0.7,1.9-1.7,1.9c-1.1,0-1.8-0.8-1.8-2.8c0-1.9,0.7-2.8,1.8-2.8c1.2,0,1.7,0.8,1.7,2.6
		v0.2h-2.9v0.3c0,1.6,0.5,2,1.1,2c0.6,0,1-0.5,1.1-1.4H-249z M-249.6,416.8c0-1.3-0.4-1.8-1.1-1.8s-1.1,0.5-1.1,1.8H-249.6z"/>
	<path class="st0" d="M-248.1,414.6h0.6v0.8h0c0.2-0.6,0.7-1,1.4-1c0.1,0,0.1,0,0.2,0v0.6c-0.1,0-0.2,0-0.3,0
		c-0.7,0-1.3,0.5-1.3,1.5v3.4h-0.6V414.6z"/>
	<path class="st0" d="M-244.1,412.7h0.7l1.6,6.6h0l1.6-6.6h0.7l-1.9,7.3h-0.8L-244.1,412.7z"/>
	<path class="st0" d="M-239.2,416.2c0-1.1,0.5-1.7,1.7-1.7c1.1,0,1.5,0.6,1.5,1.4v3.2c0,0.3,0.1,0.4,0.3,0.4h0.2v0.4
		c-0.1,0-0.2,0.1-0.3,0.1c-0.5,0-0.8-0.1-0.8-0.7v-0.2h0c-0.2,0.7-0.8,0.9-1.4,0.9c-0.9,0-1.4-0.6-1.4-1.5c0-0.7,0.3-1.3,1.1-1.5
		l1.1-0.3c0.4-0.1,0.5-0.2,0.5-0.9c0-0.7-0.4-0.9-0.9-0.9c-0.7,0-1,0.4-1,1.2H-239.2z M-236.7,416.9L-236.7,416.9
		c-0.1,0.2-0.4,0.3-0.7,0.4l-0.5,0.1c-0.6,0.2-0.9,0.5-0.9,1.1c0,0.6,0.3,1.1,0.8,1.1c0.7,0,1.2-0.6,1.2-1.5V416.9z"/>
	<path class="st0" d="M-234.9,412.7h0.6v7.3h-0.6V412.7z"/>
	<path class="st0" d="M-233.2,414.6h0.6v3.8c0,0.9,0.3,1.2,0.9,1.2c0.7,0,1.2-0.6,1.2-1.4v-3.6h0.6v5.4h-0.5v-0.8h0
		c-0.3,0.6-0.8,0.9-1.4,0.9c-0.8,0-1.4-0.4-1.4-1.4V414.6z"/>
	<path class="st0" d="M-225.5,418.2c-0.1,1.2-0.7,1.9-1.7,1.9c-1.1,0-1.8-0.8-1.8-2.8c0-1.9,0.7-2.8,1.8-2.8c1.2,0,1.7,0.8,1.7,2.6
		v0.2h-2.9v0.3c0,1.6,0.5,2,1.1,2c0.6,0,1-0.5,1.1-1.4H-225.5z M-226.1,416.8c0-1.3-0.4-1.8-1.1-1.8c-0.7,0-1.1,0.5-1.1,1.8H-226.1z
		"/>
	<path class="st0" d="M-223.8,417.3c-0.8-0.3-1-0.7-1-1.3c0-1.1,0.7-1.6,1.6-1.6c1,0,1.5,0.5,1.5,1.5v0.2h-0.6V416
		c0-0.7-0.3-1-0.9-1c-0.7,0-1,0.4-1,0.9c0,0.4,0.1,0.7,0.7,0.9l0.9,0.3c0.7,0.3,1,0.8,1,1.4c0,0.9-0.5,1.6-1.7,1.6
		c-1.1,0-1.6-0.5-1.6-1.7v-0.2h0.6v0.1c0,0.8,0.3,1.2,1,1.2c0.6,0,1.1-0.4,1.1-1c0-0.5-0.2-0.8-0.7-1L-223.8,417.3z"/>
	<path class="st0" d="M-218.5,412.7h1.9c1.4,0,2,0.8,2,2.1c0,1.1-0.6,2.1-2.2,2.1h-1.1v3.2h-0.6V412.7z M-217.8,416.3h1.1
		c0.9,0,1.5-0.4,1.5-1.5c0-1.1-0.5-1.5-1.5-1.5h-1.1V416.3z"/>
	<path class="st0" d="M-213.7,414.6h0.6v0.8h0c0.2-0.6,0.7-1,1.4-1c0.1,0,0.1,0,0.2,0v0.6c-0.1,0-0.2,0-0.3,0
		c-0.7,0-1.3,0.5-1.3,1.5v3.4h-0.6V414.6z"/>
	<path class="st0" d="M-209.5,414.4c1.2,0,1.8,0.9,1.8,2.8c0,1.9-0.7,2.8-1.8,2.8s-1.8-0.9-1.8-2.8
		C-211.3,415.4-210.6,414.4-209.5,414.4z M-209.5,419.6c0.7,0,1.2-0.6,1.2-2.3c0-1.7-0.5-2.3-1.2-2.3c-0.7,0-1.2,0.6-1.2,2.3
		C-210.7,419-210.1,419.6-209.5,419.6z"/>
	<path class="st0" d="M-204.1,414.6h0.5v5c0,1.5-0.5,2.3-1.8,2.3c-1,0-1.6-0.6-1.6-1.3h0.6c0,0.5,0.5,0.8,1,0.8
		c0.7,0,1.1-0.5,1.1-1.5V419h0c-0.2,0.7-0.7,1-1.2,1c-0.8,0-1.7-0.6-1.7-2.7c0-1.9,0.5-2.8,1.7-2.8c0.6,0,1.1,0.3,1.3,1h0V414.6z
		 M-205.3,419.5c0.7,0,1.1-0.5,1.1-2.3c0-1.7-0.4-2.3-1.1-2.3c-0.7,0-1.1,0.5-1.1,2.3C-206.4,418.9-206,419.5-205.3,419.5z"/>
	<path class="st0" d="M-202.4,414.6h0.6v0.8h0c0.2-0.6,0.7-1,1.4-1c0.1,0,0.1,0,0.2,0v0.6c-0.1,0-0.2,0-0.3,0
		c-0.7,0-1.3,0.5-1.3,1.5v3.4h-0.6V414.6z"/>
	<path class="st0" d="M-199.8,416.2c0-1.1,0.5-1.7,1.7-1.7c1.1,0,1.5,0.6,1.5,1.4v3.2c0,0.3,0.1,0.4,0.3,0.4h0.2v0.4
		c-0.1,0-0.2,0.1-0.3,0.1c-0.5,0-0.8-0.1-0.8-0.7v-0.2h0c-0.2,0.7-0.8,0.9-1.4,0.9c-0.9,0-1.4-0.6-1.4-1.5c0-0.7,0.3-1.3,1.1-1.5
		l1.1-0.3c0.4-0.1,0.5-0.2,0.5-0.9c0-0.7-0.4-0.9-0.9-0.9c-0.7,0-1,0.4-1,1.2H-199.8z M-197.3,416.9L-197.3,416.9
		c-0.1,0.2-0.4,0.3-0.7,0.4l-0.5,0.1c-0.6,0.2-0.9,0.5-0.9,1.1c0,0.6,0.3,1.1,0.8,1.1c0.7,0,1.2-0.6,1.2-1.5V416.9z"/>
	<path class="st0" d="M-195.5,414.6h0.5v0.8h0c0.3-0.6,0.8-0.9,1.4-0.9c0.6,0,1,0.4,1.1,0.9h0c0.2-0.6,0.7-0.9,1.4-0.9
		c0.7,0,1.2,0.4,1.2,1.4v4.1h-0.6v-4c0-0.6-0.3-1-0.8-1c-0.6,0-1.1,0.6-1.1,1.4v3.6h-0.6v-4c0-0.6-0.3-1-0.8-1
		c-0.6,0-1.1,0.6-1.1,1.4v3.6h-0.6V414.6z"/>
</g>
</svg>
