<?xml version="1.0" encoding="utf-8"?>
<!-- Generator: Adobe Illustrator 18.1.1, SVG Export Plug-In . SVG Version: 6.00 Build 0)  -->
<svg version="1.1" id="Layer_1" xmlns="http://www.w3.org/2000/svg" xmlns:xlink="http://www.w3.org/1999/xlink" x="0px" y="0px"
	 width="14.428px" height="20.16px" viewBox="-298.628 386.92 14.428 20.16" enable-background="new -298.628 386.92 14.428 20.16"
	 xml:space="preserve">
<g>
	
		<ellipse transform="matrix(0.8751 0.4839 -0.4839 0.8751 152.9449 188.9628)" fill="#FFFFFF" cx="-289.633" cy="390.804" rx="1.518" ry="2.32"/>
	<g>
		<path fill="#FFFFFF" d="M-288.562,397.667c-1.046,0.433-2.158,0.682-3.438,0.682c-0.636,0-1.164-0.071-1.638-0.15
			c-0.09-0.015-0.121,0.088-0.071,0.13c0.364,0.303,0.846,0.908,0.846,2.012c0,1.442-0.886,3.052-1.825,4.074
			c-0.88,0.957-1.718,1.549-2.678,2.036c-0.319,0.162-0.847,0.377-1.166,0.477c-0.144,0.045-0.128,0.181,0.051,0.147
			c0.357-0.068,0.811-0.198,1.245-0.336c1.814-0.577,3.591-1.596,5.009-2.924c1.411-1.321,2.964-3.277,3.785-6.069
			C-288.42,397.673-288.502,397.643-288.562,397.667z"/>
	</g>
	<g>
		<path fill="#FFFFFF" d="M-284.578,386.976c-0.026-0.073-0.116-0.076-0.126,0.004c-0.099,0.836-0.361,2.934-2.102,4.967
			c-2.09,2.441-5.019,3.33-7.576,3.118c-1.415-0.117-2.808-0.576-3.998-1.336c-0.083-0.046-0.137,0.033-0.096,0.088
			c1.277,1.858,3.544,3.399,6.454,3.399c4.345,0,7.822-3.519,7.822-7.895C-284.2,388.635-284.348,387.683-284.578,386.976z"/>
	</g>
</g>
</svg>
