<?xml version="1.0" encoding="utf-8"?>
<!-- Generator: Adobe Illustrator 18.1.1, SVG Export Plug-In . SVG Version: 6.00 Build 0)  -->
<svg version="1.1" id="Layer_1" xmlns="http://www.w3.org/2000/svg" xmlns:xlink="http://www.w3.org/1999/xlink" x="0px" y="0px"
	 width="26px" height="26px" viewBox="-292 384 26 26" enable-background="new -292 384 26 26" xml:space="preserve">
<g>
	
		<ellipse transform="matrix(0.8751 0.4839 -0.4839 0.8751 153.7021 182.4882)" fill="#0055B8" cx="-276.711" cy="389.034" rx="1.951" ry="2.983"/>
	<g>
		<path fill="#0055B8" d="M-275.333,397.858c-1.345,0.557-2.775,0.877-4.42,0.877c-0.818,0-1.496-0.091-2.106-0.193
			c-0.116-0.019-0.156,0.113-0.091,0.167c0.468,0.389,1.088,1.167,1.088,2.587c0,1.854-1.139,3.924-2.346,5.238
			c-1.131,1.23-2.208,1.991-3.444,2.617c-0.41,0.208-1.09,0.485-1.499,0.614c-0.185,0.058-0.164,0.232,0.065,0.189
			c0.459-0.087,1.043-0.254,1.6-0.432c2.333-0.742,4.617-2.052,6.44-3.759c1.814-1.698,3.811-4.213,4.866-7.803
			C-275.151,397.865-275.256,397.826-275.333,397.858z"/>
	</g>
	<g>
		<path fill="#0055B8" d="M-270.211,384.111c-0.033-0.094-0.149-0.098-0.161,0.005c-0.127,1.075-0.464,3.773-2.703,6.386
			c-2.687,3.138-6.454,4.281-9.741,4.009c-1.819-0.151-3.61-0.74-5.14-1.717c-0.107-0.059-0.176,0.042-0.124,0.113
			c1.641,2.389,4.557,4.37,8.298,4.37c5.587,0,10.057-4.524,10.057-10.151C-269.725,386.245-269.916,385.021-270.211,384.111z"/>
	</g>
</g>
</svg>
