<?xml version="1.0" encoding="utf-8"?>
<!-- Generator: Adobe Illustrator 18.1.1, SVG Export Plug-In . SVG Version: 6.00 Build 0)  -->
<svg version="1.1" id="Layer_1" xmlns="http://www.w3.org/2000/svg" xmlns:xlink="http://www.w3.org/1999/xlink" x="0px" y="0px"
	 width="229.68px" height="65px" viewBox="-189.99 364 229.68 65" enable-background="new -189.99 364 229.68 65"
	 xml:space="preserve">
<g>
	<g>
		<path fill="#0055B8" d="M-189.99,391.308h5.313c3.624,0,6.158,1.226,6.158,4.36c0,1.771-1.008,3.351-3.134,3.897v0.109
			c2.616,0.409,4.142,1.826,4.142,4.278c0,3.515-2.779,5.232-6.758,5.232h-5.722V391.308z M-185.058,398.937
			c3.025,0,4.305-1.09,4.305-3.079c0-1.935-1.444-2.752-4.196-2.752h-2.752v5.831H-185.058z M-184.595,407.385
			c3.052,0,4.85-1.118,4.85-3.543c0-2.207-1.717-3.215-4.85-3.215h-3.106v6.758H-184.595z"/>
		<path fill="#0055B8" d="M-169.629,395.613c3.379,0,5.286,2.425,5.286,6.213c0,0.463-0.027,0.899-0.082,1.226h-8.937
			c0.163,2.861,1.88,4.659,4.414,4.659c1.254,0,2.316-0.409,3.297-1.035l0.79,1.472c-1.144,0.736-2.561,1.363-4.36,1.363
			c-3.542,0-6.349-2.589-6.349-6.921C-175.569,398.256-172.653,395.613-169.629,395.613z M-166.304,401.58
			c0-2.698-1.199-4.196-3.27-4.196c-1.853,0-3.542,1.526-3.815,4.196H-166.304z"/>
		<path fill="#0055B8" d="M-161.625,413.025c1.499,0,2.453-1.199,2.997-2.834l0.3-0.981l-5.313-13.27h2.316l2.698,7.33
			c0.409,1.144,0.872,2.507,1.281,3.733h0.109c0.381-1.199,0.763-2.561,1.117-3.733l2.371-7.33h2.18l-4.987,14.333
			c-0.926,2.616-2.289,4.605-4.959,4.605c-0.599,0-1.117-0.109-1.553-0.272l0.436-1.771
			C-162.36,412.916-161.951,413.025-161.625,413.025z"/>
		<path fill="#0055B8" d="M-144.729,395.613c3.243,0,6.131,2.534,6.131,6.976c0,4.387-2.888,6.921-6.131,6.921
			c-3.243,0-6.131-2.534-6.131-6.921C-150.86,398.147-147.972,395.613-144.729,395.613z M-144.729,407.657
			c2.289,0,3.815-2.044,3.815-5.068c0-3.052-1.526-5.123-3.815-5.123c-2.262,0-3.815,2.071-3.815,5.123
			C-148.544,405.613-146.991,407.657-144.729,407.657z"/>
		<path fill="#0055B8" d="M-135.76,395.94h1.853l0.191,1.907h0.082c1.254-1.253,2.616-2.234,4.441-2.234
			c2.779,0,4.033,1.799,4.033,5.177v8.393h-2.234v-8.093c0-2.48-0.763-3.543-2.507-3.543c-1.362,0-2.289,0.709-3.624,2.044v9.591
			h-2.234V395.94z"/>
		<path fill="#0055B8" d="M-116.633,395.613c1.526,0,2.534,0.572,3.706,1.526l-0.109-2.262v-5.095h2.262v19.401h-1.853l-0.191-1.553
			h-0.082c-1.035,1.008-2.452,1.88-4.006,1.88c-3.324,0-5.477-2.507-5.477-6.921C-122.382,398.283-119.657,395.613-116.633,395.613z
			 M-116.415,407.63c1.226,0,2.289-0.599,3.379-1.826v-6.921c-1.117-1.008-2.125-1.389-3.215-1.389
			c-2.125,0-3.815,2.044-3.815,5.068C-120.066,405.722-118.731,407.63-116.415,407.63z"/>
		<path fill="#0055B8" d="M-101.425,391.308h2.289v17.875h-2.289V391.308z"/>
		<path fill="#0055B8" d="M-95.391,395.94h1.853l0.191,1.907h0.082c1.254-1.253,2.616-2.234,4.441-2.234
			c2.779,0,4.033,1.799,4.033,5.177v8.393h-2.234v-8.093c0-2.48-0.763-3.543-2.507-3.543c-1.362,0-2.289,0.709-3.624,2.044v9.591
			h-2.234V395.94z"/>
		<path fill="#0055B8" d="M-76.263,395.613c1.526,0,2.534,0.572,3.706,1.526l-0.109-2.262v-5.095h2.262v19.401h-1.853l-0.191-1.553
			h-0.082c-1.035,1.008-2.452,1.88-4.006,1.88c-3.324,0-5.477-2.507-5.477-6.921C-82.013,398.283-79.288,395.613-76.263,395.613z
			 M-76.045,407.63c1.226,0,2.289-0.599,3.379-1.826v-6.921c-1.117-1.008-2.125-1.389-3.215-1.389c-2.125,0-3.815,2.044-3.815,5.068
			C-79.697,405.722-78.362,407.63-76.045,407.63z"/>
		<path fill="#0055B8" d="M-67.186,391.771c0-0.872,0.681-1.444,1.553-1.444c0.872,0,1.553,0.572,1.553,1.444
			c0,0.845-0.681,1.444-1.553,1.444C-66.504,393.215-67.186,392.616-67.186,391.771z M-66.777,395.94h2.234v13.243h-2.234V395.94z"
			/>
		<path fill="#0055B8" d="M-60.163,408.72v-0.109c-0.654-0.409-1.171-1.117-1.171-2.153c0-1.118,0.763-1.989,1.444-2.453v-0.109
			c-0.872-0.709-1.717-1.989-1.717-3.57c0-2.888,2.289-4.714,4.987-4.714c0.735,0,1.39,0.136,1.88,0.327h4.605v1.717h-2.725
			c0.627,0.6,1.09,1.608,1.09,2.725c0,2.834-2.153,4.605-4.85,4.605c-0.654,0-1.39-0.164-1.989-0.463
			c-0.463,0.409-0.845,0.845-0.845,1.581c0,0.845,0.545,1.444,2.343,1.444h2.561c3.079,0,4.632,0.954,4.632,3.161
			c0,2.452-2.588,4.578-6.703,4.578c-3.243,0-5.477-1.28-5.477-3.569C-62.098,410.6-61.362,409.537-60.163,408.72z M-56.294,413.733
			c2.534,0,4.197-1.308,4.197-2.698c0-1.226-0.954-1.635-2.67-1.635h-2.289c-0.518,0-1.145-0.055-1.717-0.218
			c-0.954,0.681-1.362,1.472-1.362,2.234C-60.136,412.834-58.692,413.733-56.294,413.733z M-53.814,400.327
			c0-1.935-1.253-3.079-2.806-3.079c-1.553,0-2.807,1.145-2.807,3.079c0,1.935,1.281,3.161,2.807,3.161
			C-55.095,403.488-53.814,402.262-53.814,400.327z"/>
		<path fill="#0055B8" d="M-43.033,395.613c3.242,0,6.131,2.534,6.131,6.976c0,4.387-2.888,6.921-6.131,6.921
			c-3.242,0-6.131-2.534-6.131-6.921C-49.164,398.147-46.275,395.613-43.033,395.613z M-43.033,407.657
			c2.289,0,3.815-2.044,3.815-5.068c0-3.052-1.526-5.123-3.815-5.123c-2.262,0-3.815,2.071-3.815,5.123
			C-46.848,405.613-45.295,407.657-43.033,407.657z"/>
	</g>
	<g>
		<path fill="#0055B8" d="M-35.962,407.232c0-1.353,0.983-2.277,2.173-2.277c1.202,0,2.185,0.925,2.185,2.277
			c0,1.353-0.983,2.277-2.185,2.277C-34.98,409.51-35.962,408.585-35.962,407.232z M-32.067,407.232
			c0-1.087-0.751-1.861-1.722-1.861c-0.971,0-1.711,0.774-1.711,1.861c0,1.098,0.74,1.85,1.711,1.85
			C-32.818,409.082-32.067,408.331-32.067,407.232z M-34.621,406.03h0.879c0.486,0,0.902,0.196,0.902,0.751
			c0,0.278-0.173,0.543-0.428,0.636l0.532,0.96h-0.532l-0.405-0.809h-0.474v0.809h-0.474V406.03z M-33.847,407.198
			c0.312,0,0.497-0.139,0.497-0.393c0-0.231-0.127-0.381-0.474-0.381h-0.324v0.775H-33.847z"/>
	</g>
	<g>
		<path fill="#0055B8" d="M-5.43,391.307h5.504c3.951,0,6.594,1.335,6.594,5.259c0,3.76-2.698,5.531-6.594,5.531h-3.215v7.085H-5.43
			V391.307z M-0.226,400.245c3.134,0,4.632-1.144,4.632-3.678c0-2.589-1.553-3.434-4.632-3.434h-2.915v7.112H-0.226z"/>
		<path fill="#0055B8" d="M14.005,395.613c3.379,0,5.286,2.425,5.286,6.213c0,0.463-0.027,0.899-0.082,1.226h-8.938
			c0.164,2.861,1.88,4.659,4.414,4.659c1.254,0,2.316-0.409,3.297-1.035l0.79,1.472c-1.144,0.736-2.561,1.363-4.36,1.363
			c-3.542,0-6.349-2.589-6.349-6.921C8.065,398.256,10.98,395.613,14.005,395.613z M17.329,401.58c0-2.698-1.199-4.196-3.27-4.196
			c-1.853,0-3.542,1.526-3.815,4.196H17.329z"/>
		<path fill="#0055B8" d="M22.432,397.765H20.47v-1.689l2.071-0.136l0.273-3.706h1.88v3.706h3.57v1.826h-3.57v7.357
			c0,1.635,0.518,2.561,2.044,2.561c0.463,0,1.062-0.191,1.499-0.354l0.436,1.69c-0.736,0.245-1.635,0.49-2.452,0.49
			c-2.834,0-3.788-1.799-3.788-4.414V397.765z"/>
		<path fill="#0055B8" d="M31.025,406.185c1.144,0.926,2.316,1.581,3.897,1.581c1.744,0,2.616-0.926,2.616-2.071
			c0-1.363-1.58-1.962-3.024-2.507c-1.88-0.681-3.951-1.58-3.951-3.814c0-2.126,1.69-3.761,4.551-3.761
			c1.662,0,3.106,0.681,4.115,1.499l-1.063,1.417c-0.899-0.681-1.853-1.172-3.024-1.172c-1.662,0-2.425,0.899-2.425,1.908
			c0,1.226,1.444,1.717,2.943,2.289c1.907,0.708,4.033,1.499,4.033,4.006c0,2.153-1.717,3.951-4.85,3.951
			c-1.88,0-3.678-0.79-4.932-1.826L31.025,406.185z"/>
	</g>
	<g>
		<g>
			<path fill="#0055B8" d="M-24.724,408.592c-0.422,0.635-0.88,1.221-1.345,1.727c-1.639,1.783-3.201,2.886-4.992,3.794
				c-0.595,0.301-1.579,0.703-2.172,0.89c-0.269,0.085-0.238,0.337,0.095,0.274c0.665-0.127,1.512-0.368,2.32-0.626
				c3.381-1.076,6.693-2.975,9.336-5.449c2.63-2.462,5.524-6.107,7.054-11.311c0.04-0.136-0.113-0.193-0.224-0.147
				c-1.95,0.807-4.023,1.271-6.407,1.271c-0.205,0-0.332-0.012-0.525-0.013c-0.16-0.001-0.208,0.085-0.208,0.229
				C-21.794,402.737-22.877,405.904-24.724,408.592z"/>
			<path fill="#0055B8" d="M-21.609,396.89c0.169,0.016,0.319,0.012,0.507,0.012c8.099,0,14.578-6.558,14.578-14.714
				c0-1.278-0.276-3.051-0.705-4.371c-0.048-0.136-0.216-0.142-0.234,0.007c-0.184,1.558-0.673,5.469-3.917,9.258
				c-2.969,3.466-7.007,5.327-10.631,5.727c-0.121,0.013-0.182,0.11-0.16,0.228c0.207,1.125,0.379,2.317,0.379,3.528l-0.004,0.125
				C-21.787,396.823-21.717,396.88-21.609,396.89z"/>
			<path fill="#0055B8" d="M-22.61,390.761c5.32-0.667,8.899-4.61,7.739-8.506c-0.029-0.098-0.138-0.138-0.236-0.043
				c-3.033,2.912-6.686,2.872-6.686,2.872l-5.952-1.596c-0.151-0.041-0.257,0.089-0.143,0.182c2.244,1.831,3.935,4.165,4.993,6.915
				C-22.85,390.706-22.732,390.776-22.61,390.761z"/>
		</g>
		<path fill="#0055B8" d="M-24.803,402.608c-4.005-1.633-7.247-5.313-8.562-8.525c-0.109-0.265,0.02-0.437,0.203-0.249
			c1.708,1.754,4.038,3.364,6.538,4.23c0.736,0.255,1.518,0.497,2.306,0.643c0.117,0.022,0.172,0.089,0.172,0.22
			c0,0.362-0.011,1.15-0.131,1.965c-0.118,0.798-0.236,1.36-0.295,1.623C-24.597,402.626-24.74,402.634-24.803,402.608z"/>
	</g>
</g>
</svg>
