<?xml version="1.0" encoding="utf-8"?>
<!-- Generator: Adobe Illustrator 18.1.1, SVG Export Plug-In . SVG Version: 6.00 Build 0)  -->
<svg version="1.1" id="Layer_1" xmlns="http://www.w3.org/2000/svg" xmlns:xlink="http://www.w3.org/1999/xlink" x="0px" y="0px"
	 width="26px" height="26px" viewBox="-292 384 26 26" enable-background="new -292 384 26 26" xml:space="preserve">
<g>
	
		<ellipse transform="matrix(0.8751 0.4839 -0.4839 0.8751 155.8557 181.2414)" fill="#0055B8" cx="-273.218" cy="392.583" rx="1.62" ry="2.477"/>
	<g>
		<g>
			<path fill="#0055B8" d="M-272.074,399.911c-1.117,0.462-2.304,0.728-3.67,0.728c-0.679,0-1.242-0.075-1.749-0.16
				c-0.096-0.016-0.13,0.094-0.075,0.139c0.389,0.323,0.903,0.969,0.903,2.148c0,1.539-0.946,3.259-1.948,4.35
				c-0.939,1.021-1.834,1.654-2.86,2.173c-0.341,0.173-0.905,0.403-1.244,0.51c-0.154,0.049-0.136,0.193,0.054,0.157
				c0.381-0.073,0.866-0.211,1.329-0.358c1.937-0.617,3.834-1.704,5.348-3.121c1.507-1.41,3.165-3.498,4.041-6.48
				C-271.923,399.917-272.01,399.884-272.074,399.911z"/>
			<g>
				<path fill="#0055B8" d="M-278.594,401.235c-0.701,0.304-1.552,0.478-2.415,0.478c-4.076,0-7.07-3.028-7.07-7.832
					c0-4.746,3.197-7.716,7.07-7.716c1.892,0,3.086,0.757,4.047,1.776l1.397-1.543c-1.135-1.165-2.882-2.358-5.474-2.358
					c-5.124,0-9.545,3.756-9.545,9.899c0,6.231,4.304,9.899,9.312,9.899c1.245,0,2.385-0.237,3.373-0.618
					C-277.683,402.39-278.161,401.468-278.594,401.235z"/>
			</g>
		</g>
	</g>
	<g>
		<path fill="#0055B8" d="M-267.821,388.495c-0.028-0.078-0.124-0.082-0.134,0.004c-0.105,0.892-0.385,3.133-2.244,5.303
			c-2.231,2.606-5.359,3.555-8.089,3.329c-1.51-0.125-2.998-0.615-4.268-1.426c-0.089-0.049-0.146,0.035-0.103,0.094
			c1.363,1.984,3.784,3.629,6.891,3.629c4.639,0,8.351-3.757,8.351-8.429C-267.417,390.267-267.576,389.251-267.821,388.495z"/>
	</g>
</g>
</svg>
