<?xml version="1.0" encoding="utf-8"?>
<!-- Generator: Adobe Illustrator 20.1.0, SVG Export Plug-In . SVG Version: 6.00 Build 0)  -->
<svg version="1.1" xmlns="http://www.w3.org/2000/svg" xmlns:xlink="http://www.w3.org/1999/xlink" x="0px" y="0px"
	 width="953.543px" height="441.732px" viewBox="0 0 953.543 441.732" style="enable-background:new 0 0 953.543 441.732;"
	 xml:space="preserve">
<style type="text/css">
	.st0{opacity:0.2;}
	.st1{fill:#FFFFFF;}
	.st2{display:none;}
	.st3{display:inline;fill:none;stroke:#EC008C;stroke-width:0.5;stroke-miterlimit:10;}
</style>
<g id="Layer_1">
	<g class="st0">
		<polygon class="st1" points="911.773,321.391 895.82,313.439 888.946,330.032 891.257,330.989 897.104,316.873 910.658,323.629 		
			"/>
		<polygon class="st1" points="913.893,340.898 920.169,327.801 933.943,334.657 935.057,332.419 919.011,324.432 911.639,339.818 
					"/>
		<polygon class="st1" points="909.587,349.884 922.89,356.614 924.019,354.383 908.437,346.5 901.445,361.089 903.699,362.169 		
			"/>
		<polygon class="st1" points="899.931,369.785 912.809,376.398 913.951,374.173 898.786,366.386 892.133,380.276 894.387,381.356 
					"/>
		<circle class="st1" cx="937.159" cy="367.094" r="3.703"/>
		<path class="st1" d="M617.219,167.811c5.667-2.257,11.871-2.175,17.477,0.238c3.094,1.331,5.795,3.277,8.026,5.786l1.094,1.229
			l0.891-1.383c7.011-10.884,20.741-15.063,32.648-9.941c5.205,2.239,9.47,6.001,12.334,10.879l0.985,1.678l1.116-1.593
			c7.49-10.688,20.209-16.459,33.201-15.063l0.8,0.086l0.41-0.692c6.377-10.779,19.874-15.169,31.393-10.214
			c6.109,2.628,10.841,7.476,13.322,13.65l0.449,1.117l1.134-0.407c12.064-4.332,25.189-3.931,36.956,1.132
			c5.885,2.531,11.164,6.108,15.693,10.63l0.938,0.937l0.88-0.993c8.826-9.958,22.972-13.118,35.198-7.855
			c15.592,6.708,22.819,24.85,16.111,40.442c-0.421,0.979-0.905,1.959-1.438,2.909l-0.533,0.952l0.871,0.657
			c9.645,7.271,15.649,18.382,16.476,30.481l0.094,1.381l1.364-0.233c5.723-0.98,11.575-0.284,16.918,2.016
			c7.375,3.173,13.072,9.027,16.044,16.485c2.971,7.458,2.859,15.627-0.313,23.002l2.297,0.988
			c7.095-16.49-0.55-35.678-17.039-42.772c-5.37-2.311-11.219-3.128-16.982-2.385c-1.18-11.94-7.128-22.868-16.501-30.301
			c0.376-0.724,0.725-1.458,1.041-2.192c7.252-16.858-0.562-36.474-17.42-43.727c-12.818-5.516-27.585-2.473-37.17,7.531
			c-4.541-4.319-9.764-7.765-15.54-10.25c-11.987-5.157-25.318-5.707-37.676-1.575c-2.833-6.268-7.831-11.184-14.186-13.917
			c-12.427-5.345-26.94-0.804-34.115,10.555c-12.988-1.122-25.658,4.429-33.62,14.694c-3.093-4.575-7.383-8.125-12.504-10.329
			c-12.547-5.396-26.941-1.357-34.846,9.577c-2.249-2.232-4.871-4.001-7.813-5.267c-6.216-2.673-13.102-2.768-19.39-0.264
			c-6.287,2.505-11.839,7.331-14.312,14.331l2.712,0.182C607.104,174.398,611.553,170.068,617.219,167.811z"/>
		
			<rect x="827.284" y="241.864" transform="matrix(0.3419 -0.9397 0.9397 0.3419 309.9914 943.3923)" class="st1" width="2.5" height="17.025"/>
		<polygon class="st1" points="802.013,261.376 796.297,278.683 798.67,279.466 803.579,264.602 816.924,269.435 817.775,267.086 		
			"/>
		<polygon class="st1" points="824.828,269.639 818.661,286.715 821.013,287.565 826.33,272.842 839.657,277.669 840.509,275.319 		
			"/>
		
			<rect x="781.256" y="333.089" transform="matrix(0.3368 -0.9416 0.9416 0.3368 196.2965 964.0754)" class="st1" width="2.5" height="19.212"/>
		
			<rect x="805.784" y="341.896" transform="matrix(0.3368 -0.9416 0.9416 0.3368 204.3055 992.9879)" class="st1" width="2.5" height="19.139"/>
		
			<rect x="235.743" y="322.124" transform="matrix(0.9701 -0.2429 0.2429 0.9701 -71.0796 70.2616)" class="st1" width="27.287" height="2.501"/>
		<polygon class="st1" points="184.84,222.227 217.091,212.973 216.401,210.571 181.705,220.526 187.113,238.207 189.504,237.476 		
			"/>
		<polygon class="st1" points="229.759,227.233 225.676,210.804 258.045,203.447 257.492,201.009 222.635,208.931 227.333,227.836 
					"/>
		<polygon class="st1" points="192.328,247.504 223.775,238.502 223.086,236.097 189.146,245.815 194.351,261.749 196.727,260.973 
					"/>
		<polygon class="st1" points="232.197,236.348 263.804,228.265 263.185,225.843 229.138,234.549 233.645,251.66 236.062,251.023 		
			"/>
		<polygon class="st1" points="229.22,258.168 195.979,267.669 200.978,282.931 203.354,282.154 199.164,269.358 229.906,260.572 		
			"/>
		<polygon class="st1" points="239.439,273.098 241.857,272.461 238.173,258.468 269.071,250.604 268.455,248.182 235.114,256.668 
					"/>
		<polygon class="st1" points="245.204,294.866 247.622,294.229 244.117,280.914 274.294,273.269 273.68,270.845 241.057,279.109 		
			"/>
		<circle class="st1" cx="214.313" cy="191.445" r="3.703"/>
		
			<rect x="84.711" y="242.797" transform="matrix(0.9273 -0.3742 0.3742 0.9273 -84.5322 52.7271)" class="st1" width="17.607" height="2.5"/>
		<polygon class="st1" points="91.93,354.355 76.805,360.978 83.886,375.383 86.129,374.28 80.201,362.22 92.933,356.646 		"/>
		<polygon class="st1" points="114.558,347.178 113.555,344.887 98.591,351.439 105.25,365.919 107.522,364.875 101.926,352.709 		
			"/>
		<path class="st1" d="M347.508,307.164c2.034-0.297,3.433-2.217,3.123-4.296c-0.311-2.087-2.226-3.543-4.275-3.244
			c-2.05,0.299-3.445,2.239-3.119,4.324C343.562,306.026,345.474,307.462,347.508,307.164z"/>
		
			<rect x="322.502" y="199.792" transform="matrix(0.9896 -0.1437 0.1437 0.9896 -25.4553 49.6772)" class="st1" width="17.28" height="2.5"/>
		<polygon class="st1" points="316.724,241.592 319.188,241.174 316.535,225.554 330.839,223.473 330.479,220.999 313.642,223.449 
					"/>
		<polygon class="st1" points="340.76,238.068 343.233,237.701 340.909,222.009 355.254,219.923 354.895,217.449 338.069,219.896 		
			"/>
		<polygon class="st1" points="334.794,248.745 334.434,246.27 317.961,248.67 320.911,266.041 323.375,265.623 320.854,250.776 		
			"/>
		<polygon class="st1" points="344.394,262.591 346.866,262.224 344.657,247.308 358.639,245.272 358.278,242.797 341.817,245.195 
					"/>
		<polygon class="st1" points="338.71,273.779 338.349,271.304 322.238,273.657 325.059,290.279 327.524,289.861 325.13,275.76 		
			"/>
		<path class="st1" d="M-65.67,483.152c18.919-11.808,106.761-64.74,126.4-75.079l11.791,22.849l2.222-1.146l-23.688-45.904
			l6.325-3.264l23.688,45.904l2.222-1.146l-11.795-22.858c19.376-9.872,39.072-19.031,59.052-27.464l3.53,8.121l2.293-0.996
			l-20.592-47.374l5.397-2.346c-1.129,5.292-0.858,10.948,1.086,16.409c2.632,7.391,7.977,13.281,14.663,16.732l5.973,13.741
			l2.293-0.996l-3.448-7.933c1.479-0.601,2.961-1.196,4.443-1.79c1.499,0.23,3.026,0.354,4.574,0.354
			c1.419,0,2.828-0.125,4.227-0.324l13.195,37.051l2.355-0.838l-12.983-36.456l3.342-1.19c0.003-0.001,0.007-0.002,0.01-0.003
			c0.006-0.002,0.012-0.005,0.018-0.007l3.335-1.188l12.982,36.455l2.355-0.838l-13.186-37.026c2.929-1.763,5.523-3.999,7.687-6.632
			c0.277-0.1,0.553-0.201,0.83-0.301l6.313,19.21l2.375-0.781l-7.084-21.558c0.562-0.919,1.083-1.871,1.552-2.858
			c1.18-2.484,1.997-5.076,2.467-7.712l9.828,29.906l2.375-0.781l-6.4-19.476c6.798-2.355,13.625-4.627,20.476-6.82l2.397,10.356
			l-5.087,31.52l17.422-5.041l0.902,2.589c-37.039,21.108-146.985,81.423-187.229,96.929h6.896
			c38.091-15.003,145.986-74.503,181.17-94.529l5.648,16.213c-0.284,0.552-0.479,1.158-0.572,1.824
			c-0.284,2.033,0.36,4.26,0.984,6.413l0.33,1.141l23.587-5.673l-0.37-1.279c-1.261-4.359-4.311-7.177-8.322-7.805l-4.756-20.489
			c0.659-0.395,1.315-0.794,1.973-1.19l15.436-4.467l-3.083-3.125c0.307-0.192,0.617-0.38,0.923-0.573
			c8.886-5.594,17.682-11.386,26.376-17.333l36.631,8.261l-23.484,3.487l-19.869-6.682l14.557,17.757l1.32,9.606l2.372,7.161
			c-18.332,20.443-86.845,77.029-105.905,91.281h4.137c19.92-15.114,87.344-71.683,102.663-88.579l2.927,8.836l7.441-2.144
			l2.384-16.144l15.894-1.917l10.29,10.47l9.166-1.847l-9.297-16.812l8.232-8.823l12.566,0.746l2.311-6.853l-6.717-2.312
			l6.616-4.602l-3.369-7.597l-8.746,2.384l-3.432-3.657l-7.417,1.798c8.42-11.091,16.362-22.329,21.537-33.268
			c7.828-1.13,15.676-2.158,23.542-3.086l3.258,30.001l2.485-0.27l-4.178-38.472l3.538-0.384l0.001,0l0.001,0l3.537-0.384
			l4.178,38.471l2.485-0.27l-3.261-30.036c26.129-2.731,52.445-4.347,78.883-4.825c-34.911,6.063-55.712,13.086-61.908,20.925
			c-1.335,1.688-1.856,3.331-1.549,4.882c0.594,3.003,3.969,4.898,7.877,7.093c5.822,3.269,11.843,6.648,9.535,13.825
			c-6.278,19.522-107.959,91.983-212.162,132.85h6.824c102.525-40.523,201.231-111.914,207.718-132.084
			c2.933-9.122-4.941-13.543-10.691-16.771c-3.229-1.812-6.278-3.524-6.649-5.397c-0.16-0.812,0.186-1.742,1.058-2.846
			c1.208-1.528,3.283-3.251,6.658-5.107c-0.867,0.871-1.566,1.761-2.084,2.677c-0.892,1.576-1.125,3.097-0.692,4.518
			c0.955,3.139,4.841,5.088,9.34,7.344c6.304,3.162,13.449,6.746,12.695,14.079c-2.008,19.518-96.723,92.229-191.457,133.588h6.229
			c93.461-41.143,185.618-112.941,187.716-133.332c0.931-9.05-7.382-13.22-14.062-16.569c-3.819-1.915-7.426-3.725-8.069-5.837
			c-0.229-0.751-0.073-1.588,0.477-2.559c5.687-10.048,38.541-16.471,69.962-21.429c14.083,0.001,28.135,0.331,42.148,0.974
			c-3.787,1.173-6.988,2.321-9.64,3.466c-6.898,2.619-10.065,5.152-10.172,7.93c-0.004,0.117,0.006,0.232,0.012,0.348
			c-0.051,0.208-0.095,0.416-0.122,0.626c-0.432,3.407,2.398,6.784,8.65,10.323c8.473,4.795,19.249,7.263,31.727,10.119
			c14.198,3.251,30.291,6.936,48.323,15.024c51.109,22.927,99.527,87.196,104.043,130.916h2.517
			c-4.521-44.793-53.463-109.837-105.537-133.198c-18.257-8.189-34.478-11.903-48.788-15.18
			c-12.287-2.813-22.898-5.243-31.054-9.858c-2.224-1.259-3.963-2.482-5.198-3.645c1.595,0.853,3.609,1.682,6.081,2.501
			c7.301,2.418,15.39,4.07,24.757,5.984c15.989,3.267,35.889,7.331,58.689,17.204c54.996,23.813,107.466,89.533,120.099,136.191
			h2.59c-12.694-47.748-65.748-114.26-121.695-138.486c-23.04-9.976-43.08-14.069-59.184-17.358
			c-9.289-1.897-17.311-3.537-24.472-5.908c-6.888-2.282-8.534-4.095-8.865-5.06c0.851-2.17,4.121-4.215,8.12-5.989
			c3.55-1.366,16.423-5.466,16.803-5.568c27.995,1.52,55.819,4.319,83.396,8.367l-1.855,14.468l2.48,0.318l3.406-26.567l7.087,0.646
			l-3.396,26.477l2.48,0.318l1.772-13.827c4.774,0.766,9.54,1.57,14.298,2.411l-4.165,23.89l2.463,0.43l6.893-39.542
			c0.343,5.165,2.009,10.079,4.727,14.32l-4.578,26.266l2.463,0.43l4.114-23.6c0.11,0.021,0.22,0.042,0.331,0.063
			c2.965,3.528,6.739,6.406,11.122,8.298l-8.051,38.475l2.447,0.512l7.926-37.877l6.967,1.458l-7.926,37.878l2.447,0.512
			l8.051-38.476c0.056,0,0.113,0.004,0.169,0.004c4.6,0,9.01-1.064,12.975-2.968l-7.25,30.615l2.434,0.576l7.77-32.809
			c3.827-2.39,7.103-5.622,9.553-9.455l-10.403,43.928l2.434,0.576l7.282-30.75c3.708,0.917,7.412,1.849,11.107,2.813
			c-1.139,0.757-2.146,1.606-3.069,2.383c-1.39,1.171-2.703,2.278-3.978,2.659c-2.577,0.769-3.925,2.588-3.795,5.121
			c0.242,4.708,5.788,11.12,11.367,13.88c-5.721,1.491-10.015,5.263-12.182,11.042c-2.341,6.239,0.351,15.145,4.237,19.007
			l-2.048,8.177l-3.772-0.259c-0.075-0.013-7.512-0.83-10.418,7.1l-0.552,1.939c0,0,6.664,1.452,22.276,4.759
			c8.319,1.763,14.013,3.75,18.542,4.655c3.814,0.762,7.033,0.583,7.996,0.583c12.321,0,20.266-4.367,23.61-12.979
			c2.856-7.354,0.485-11.439-1.083-14.142c-1.28-2.209-1.614-2.929-0.818-4.781c0.398-0.927,2.057-1.601,3.942-1.601
			c0.493,0,0.97,0.046,1.415,0.135c0.601,0.12,1.099,0.177,1.566,0.177c2.098,0,3.523-1.233,4.015-3.472
			c0.285-1.299,0.145-2.399-0.42-3.271c-0.8-1.238-2.216-1.658-3.211-1.867c-1.08-0.227-2.173-0.341-3.25-0.341
			c-5.58,0-10.287,2.993-12.592,8.006c-2.758,5.997-0.674,9.712,0.849,12.425c1.311,2.338,1.969,3.511,0.642,6.689
			c-0.521,1.246-1.604,3.84-9.759,3.84c-0.508,0-1.047-0.014-1.6-0.034c2.371-3.598,4.153-7.706,5.125-12.035
			c1.779-7.928,0.474-15.868-3.675-22.359c-0.742-1.16-1.58-2.228-2.472-3.239l9.341-31.9l3.404,0.994
			c0.004,0.001,0.009,0.003,0.013,0.004c0.003,0.001,0.006,0.001,0.009,0.002l3.407,0.995l-9.766,33.352l2.398,0.703l7.047-24.068
			c21.483,6.741,42.716,14.272,63.652,22.597l-14.17,35.492l2.322,0.928l18.119-45.384l3.029,1.22
			c-0.43,3.247-0.311,6.505,0.294,9.654l-14.843,37.175l2.322,0.928l13.595-34.048c1.952,5.743,5.605,10.899,10.669,14.631
			l-16.517,35.669l2.27,1.051l16.261-35.116l3.182,1.474c0.016,0.007,0.03,0.016,0.046,0.023c0.015,0.007,0.03,0.012,0.044,0.019
			l3.186,1.476l-16.262,35.115l2.27,1.051l16.517-35.672c2.264,0.538,4.581,0.817,6.937,0.817c4.903,0,9.63-1.214,13.841-3.385
			c57.649,27.614,105.246,57.746,163.606,92.197h4.709c-15.578-9.817-102.899-60.991-118.973-69.812l46.462-84.663l-1.088-0.604
			c-0.211-0.117-21.658-11.957-70.332-33.303c-16.446-7.213-29.385-12.699-39.332-16.81l10.222-25.415l-1.072-0.502
			c-0.099-0.046-10.203-4.738-35.929-13.98c-25.709-9.235-39.029-13.1-39.161-13.138l-1.185-0.342l-7.909,26.047
			c-9.048-2.53-21.106-5.821-36.897-9.992c-0.306-0.56-0.626-1.114-0.962-1.662c-5.239-8.538-13.489-14.524-23.23-16.856
			c-2.88-0.689-5.828-1.039-8.763-1.039c-10.571,0-20.246,4.375-27.125,11.604c-5.124-6.842-12.812-11.772-21.906-13.181
			c-1.173-0.182-2.357-0.28-3.54-0.339l-14.185-17.957l-34.897,23.43l-82.422-89.958l0.808-19.443
			c1.234,0.518,2.532,0.789,3.94,0.789c0.001,0,0.001,0,0.001,0c2.404,0,4.745-0.745,7.009-1.464
			c2.178-0.692,4.235-1.347,6.252-1.347c1.043,0,1.989,0.177,2.893,0.542l1.501,0.606l0.206-1.606
			c0.497-3.854,0.995-7.655,1.492-11.394l0.105-0.791l-0.674-0.428c-1.694-1.077-3.501-1.601-5.524-1.601
			c-2.404,0-4.745,0.744-7.009,1.464c-2.178,0.692-4.235,1.347-6.251,1.347c-1.204,0-2.299-0.258-3.333-0.755l-2.443-1.391
			l-0.027,1.15l-0.022-0.001l-1.318,31.709L512.73,113.76l-89.809,98.02l-48.039-43.024l-13.037,14.517
			c-6.105,0.564-16.597,1.794-33.494,4.484c-3.521,0.56-6.733,1.08-9.685,1.564l-5.287-31.167l-1.183,0.142
			c-0.38,0.046-38.784,4.768-100.904,21.284c-62.109,16.513-97.564,30.603-97.915,30.744l-1.13,0.451l3.793,10.271
			c-6.877,2.518-16.673,6.203-27.93,10.731c-21.828,8.781-37.897,16.271-38.057,16.346l-1.115,0.521l18.509,41.291
			c-30.502,13.246-45.782,21.193-45.968,21.291l-1.117,0.583l4.916,9.227c-0.72,0.31-1.432,0.638-2.13,0.997
			C6.55,330.598,0.015,351.072,8.58,367.671c5.84,11.317,17.386,18.348,30.13,18.348c3.334,0,6.671-0.508,9.872-1.487l11.002,21.319
			c-20.872,10.987-109.904,64.66-129.962,77.301H-65.67z M543.656,102.391c2.178-0.692,4.234-1.346,6.251-1.346
			c1.267,0,2.42,0.27,3.504,0.822c-0.397,2.995-0.795,6.029-1.191,9.098c-0.74-0.167-1.506-0.249-2.312-0.249
			c-2.404,0-4.745,0.745-7.01,1.464c-2.178,0.692-4.235,1.346-6.251,1.347c0,0,0,0-0.001,0c-1.298,0-2.478-0.284-3.586-0.865
			l0.217-9.356c1.062,0.369,2.178,0.551,3.37,0.551C539.052,103.856,541.393,103.111,543.656,102.391z M38.71,383.519
			c-11.805,0-22.499-6.512-27.909-16.994c-7.934-15.374-1.88-34.337,13.494-42.271c4.438-2.289,9.403-3.5,14.361-3.5
			c11.805,0,22.499,6.512,27.909,16.994c7.934,15.374,1.88,34.336-13.494,42.271C48.634,382.308,43.668,383.519,38.71,383.519z
			 M403.981,198.172l17.26,15.458l-27.253,30.264c-4.271-2.298-9.148-3.599-14.311-3.599c-0.849,0-1.706,0.047-2.559,0.119
			l-4.715-39.366c9.67-2.712,20.317-4.003,31.551-2.654L403.981,198.172z M415.306,253.167l4.536-1.127l1.112,4.471
			c-1.492,0.446-2.982,0.916-4.471,1.385L415.306,253.167z M422.871,232.989l10.079-2.507l0.857,3.451l-8.194,2.034l-1.886,0.468
			L422.871,232.989z M614.651,227.428c7.566,0.292,14.779,1.441,21.582,3.195c-2.705,3.1-4.857,6.716-6.302,10.717
			c-0.29-0.008-0.581-0.02-0.87-0.02c-12.55,0-23.318,7.536-27.884,18.55c-2.651-0.893-5.306-1.747-7.964-2.565l1.64-7.098
			l-3.64-0.841l1.688-7.301l0.081-0.086L614.651,227.428z M724.154,224.552c9.092,2.177,16.792,7.764,21.682,15.731
			c4.89,7.969,6.383,17.364,4.206,26.456c-3.786,15.813-17.771,26.858-34.008,26.858c-2.096,0-4.2-0.195-6.278-0.573
			c-0.649-2.648-1.657-5.179-2.969-7.536c0.845,0.289,1.71,0.545,2.596,0.757c2.184,0.522,4.419,0.788,6.645,0.788
			c13.193,0,24.557-8.974,27.633-21.822c1.769-7.387,0.556-15.021-3.418-21.495c-3.973-6.474-10.229-11.014-17.616-12.782
			c-2.184-0.522-4.419-0.788-6.645-0.788c-13.193,0-24.557,8.974-27.633,21.822c-1.667,6.962-0.599,13.947,2.497,19.834
			c-1.376-0.507-2.804-0.923-4.282-1.232c-1.201-0.251-2.417-0.421-3.635-0.526c-2.18-6.255-2.542-13.008-0.963-19.604
			c3.786-15.813,17.771-26.858,34.007-26.858C718.713,223.582,721.465,223.908,724.154,224.552z M833.234,240.417
			c20.923,7.516,31.442,11.998,34.637,13.408l-14.024,34.866c-2.275-0.472-4.588-0.727-6.924-0.767l7.305-18.569l-1.111-0.479
			c-0.086-0.037-8.832-3.797-27.268-10.354c-18.411-6.55-27.893-9.675-27.986-9.706l-1.198-0.395l-11.182,35.066
			c-1.719-1.67-3.63-3.128-5.702-4.343l15.626-51.465C799.178,228.814,811.932,232.763,833.234,240.417z M878.438,389.439
			c2.097-1.361,4.019-2.987,5.731-4.83c17.32,7.973,25.317,11.896,25.422,11.947l1.093,0.537l35.975-68.54l-1.093-0.585
			c-0.148-0.08-15.277-8.155-49.256-23.881c-18.458-8.542-31.167-14.094-38.961-17.397l2.578-6.41
			c9.923,4.102,22.836,9.577,39.26,16.78c42.445,18.614,64.113,29.969,69.029,32.606l-45.264,82.479
			C908.304,404.16,893.461,396.59,878.438,389.439z M850.324,389.265c-13.885-6.431-19.95-22.958-13.521-36.843
			c4.529-9.778,14.421-16.097,25.201-16.097c4.034,0,7.951,0.867,11.642,2.575c13.885,6.431,19.95,22.958,13.521,36.843
			c-4.529,9.778-14.421,16.097-25.201,16.097C857.932,391.84,854.015,390.973,850.324,389.265z M741.185,363.112
			c-3.119-2.832-6.872-4.865-11.024-5.896c4.708-1.91,8.263-5.78,9.248-10.57c0.395-1.921,0.296-4.559-0.044-7.345
			c2.702,0.781,5.4,1.576,8.094,2.382L741.185,363.112z M738.971,336.59c-0.45-2.704-1.048-5.373-1.578-7.518
			c5.082,1.373,9.316,2.536,12.738,3.486l-1.969,6.726C745.103,338.368,742.039,337.473,738.971,336.59z M723.288,330.697
			c-1.316,0-2.504,0.221-3.593,0.578c-4.632-1.224-9.275-2.41-13.927-3.561l1.561-6.591l5.267,1.373
			c6.559,1.71,12.402,3.254,17.576,4.636l-4.633,3.766C724.773,330.764,724.019,330.697,723.288,330.697z M680.398,327.935
			c-1.906,0-3.829-0.2-5.713-0.595c-14.978-3.134-24.612-17.868-21.479-32.845c2.676-12.79,14.087-22.072,27.133-22.072
			c1.907,0,3.829,0.199,5.713,0.594c14.977,3.134,24.611,17.868,21.478,32.846C704.854,318.652,693.443,327.935,680.398,327.935z
			 M619.043,310.671c-37.665-5.528-75.79-8.724-114.179-9.532l29.144-19.567c31.739,3.897,61.122,13.662,85.12,28.436
			L619.043,310.671z M504.647,279.667c8.627,0.071,17.154,0.568,25.53,1.466l-29.663,19.916l0.003,0.005
			c-5.034-0.082-10.072-0.128-15.115-0.128c-30.521,0-60.897,1.516-91.03,4.506C425.186,288.455,463.912,279.338,504.647,279.667z
			 M504.669,277.167c-0.729-0.006-1.456-0.009-2.183-0.009c-41.946,0-81.753,9.966-112.973,28.162l-0.419-3.855
			c31.656-18.949,72.483-29.133,115.553-28.803c43.208,0.355,83.942,11.287,115.313,30.853l-0.484,3.772
			C587.971,288.179,547.507,277.519,504.669,277.167z M505.992,246.414c0.773,0,1.555,0.003,2.329,0.01
			c30.78,0.253,61.623,5.568,91.995,15.791c-0.419,1.308-0.755,2.656-0.999,4.041c-30.044-9.916-60.537-15.076-90.975-15.327
			c-33.185-0.292-66.262,5.174-98.648,16.194c-0.16-1.405-0.412-2.779-0.753-4.115C440.788,251.994,473.33,246.414,505.992,246.414z
			 M456.051,232.011l1.55,15.975c-1.485,0.249-2.969,0.501-4.452,0.773l-1.583-16.313L456.051,232.011z M463.023,231.335
			l1.511,15.574c-1.488,0.214-2.977,0.418-4.463,0.655l-1.532-15.795L463.023,231.335z M469.997,230.658l1.488,15.338
			c-1.491,0.178-2.983,0.348-4.473,0.549l-1.499-15.452L469.997,230.658z M483.942,229.306l1.49,15.36
			c-1.498,0.106-2.996,0.221-4.493,0.35l-1.482-15.276L483.942,229.306z M487.928,244.5l-1.497-15.435l4.485-0.435l1.514,15.62
			C490.929,244.32,489.429,244.406,487.928,244.5z M478.45,245.248c-1.495,0.142-2.99,0.284-4.483,0.45l-1.482-15.281l4.484-0.435
			L478.45,245.248z M513.292,229.007l-0.9,15.002c-1.35-0.03-2.7-0.075-4.049-0.086c-0.153-0.001-0.306-0.001-0.459-0.002
			l0.911-15.185L513.292,229.007z M520.286,229.427l-0.89,14.826c-1.501-0.071-3.001-0.144-4.502-0.191l0.894-14.905
			L520.286,229.427z M534.272,230.266l-0.899,14.985c-1.496-0.144-2.992-0.282-4.489-0.403l0.891-14.852L534.272,230.266z
			 M541.266,230.686l-0.919,15.319c-1.494-0.18-2.989-0.351-4.483-0.508l0.905-15.081L541.266,230.686z M526.389,244.667
			c-1.498-0.107-2.997-0.213-4.495-0.297l0.888-14.794l4.497,0.27L526.389,244.667z M505.379,243.922
			c-1.506,0.003-3.012,0.034-4.517,0.06l0.94-15.665l4.497,0.27L505.379,243.922z M584.413,241.041l5.847,1.351l-1.482,6.41
			l-5.846-1.352L584.413,241.041z M591.337,240.075l-6.875-1.589l-1.066-3.496l10.434,2.411L591.337,240.075z M643.743,266.157
			c-3.52-4.812-4.955-10.704-4.042-16.595c1.671-10.775,11.139-18.9,22.022-18.9c1.146,0,2.307,0.09,3.448,0.267
			c5.891,0.913,11.072,4.064,14.592,8.875c0.791,1.081,1.461,2.224,2.038,3.402c-0.944,2.112-1.711,4.332-2.267,6.653
			c-1.339,5.593-1.375,11.291-0.177,16.747c-1.062,1.363-2.274,2.596-3.612,3.681c-4.52,0.704-8.756,2.421-12.431,4.942
			c-0.508,0.036-1.016,0.071-1.531,0.071c-1.146,0-2.307-0.09-3.448-0.267C652.445,274.119,647.264,270.967,643.743,266.157z
			 M690.78,252.55c2.806-11.72,13.169-19.904,25.201-19.904c2.029,0,4.069,0.242,6.062,0.72c6.737,1.613,12.444,5.753,16.067,11.658
			c3.624,5.905,4.73,12.868,3.117,19.605c-2.806,11.719-13.169,19.904-25.201,19.904c-2.03,0-4.069-0.242-6.062-0.72
			c-1.997-0.478-3.881-1.184-5.64-2.071c-2.517-3.275-5.701-6.049-9.409-8.086C690.705,267.756,688.964,260.138,690.78,252.55z
			 M760.38,343.039l2.315-7.625c0.58,0.034,1.161,0.062,1.742,0.062c5.027,0,9.852-1.273,14.116-3.542l35.52,12.661
			c2.971,5.003,7.118,9.34,12.237,12.557l-3.271,8.134C802.424,357.105,781.523,349.689,760.38,343.039z M752.474,267.322
			c0.97-4.053,1.25-8.162,0.88-12.195c15.065,4.274,24.367,7.156,28.532,8.48l-4.357,14.348c-1.479-0.707-3.022-1.306-4.626-1.774
			c-2.772-0.809-5.629-1.22-8.49-1.22c-2.379,0-4.709,0.297-6.959,0.837l2.745-9.623l14.73,4.442l0.723-2.393l-17.16-5.177
			l-3.873,13.573c-3.231,1.12-6.232,2.789-8.897,4.891C748.867,277.419,751.205,272.62,752.474,267.322z M844.212,287.986
			c-7.839,0.426-15.148,3.23-21.077,7.88l-6.883-2.479l-5.845,16.18l1.64,0.593c-0.185,0.417-0.387,0.823-0.558,1.249
			c-0.778,1.932-1.375,3.893-1.815,5.863l-1.814-0.65l-5.536,15.326l2.352,0.85l4.407-12.203c-0.93,7.18,0.278,14.363,3.26,20.73
			l-31.044-11.064c5.619-3.796,9.966-9.436,12.036-16.185l7.085,2.537l0.844-2.354l-7.287-2.61
			c1.151-5.255,0.886-10.638-0.751-15.693l2.421-7.331l12.935,4.657l0.848-2.352l-15.351-5.528l-2.29,6.934
			c-0.263-0.557-0.538-1.11-0.836-1.655c-1.007-1.837-2.187-3.54-3.512-5.101l10.84-33.992c3.077,1.03,12.063,4.07,26.732,9.288
			c14.636,5.206,23.122,8.634,26,9.826L844.212,287.986z M846.286,290.409c4.477,0,8.872,0.855,13.063,2.543
			c17.901,7.211,26.6,27.641,19.391,45.542c-0.043,0.106-0.096,0.206-0.139,0.312c-1.23-0.807-2.531-1.537-3.905-2.173
			c-0.646-0.299-1.301-0.566-1.959-0.817c5.695-14.491-1.369-30.948-15.84-36.775c-3.404-1.371-6.976-2.066-10.614-2.066
			c-11.67,0-22.028,6.995-26.388,17.821c-5.709,14.175,0.862,30.297,14.663,36.53c-0.008,0.016-0.017,0.031-0.024,0.047
			c-0.936,2.022-1.622,4.097-2.084,6.189c-17.389-7.475-25.749-27.57-18.642-45.218
			C819.175,299.018,831.923,290.409,846.286,290.409z M885.028,344.499l2.215-5.367l13.09,6.633l1.131-2.23l-15.502-7.854
			l-2.806,6.8c-0.783-0.769-1.614-1.495-2.487-2.182c0.127-0.293,0.27-0.575,0.39-0.872c4.041-10.035,3.41-20.808-0.851-29.909
			l8.3,3.574l0.988-2.297l-11.168-4.809c-3.664-6.06-9.064-11.126-15.835-14.37c7.757,3.362,18.551,8.162,32.765,14.741
			c28.794,13.325,44.009,21.138,48.029,23.237l-33.688,64.186c-2.687-1.3-10.378-4.989-23.74-11.145
			c1.393-1.786,2.602-3.736,3.577-5.84C894.541,365.767,892.411,353.214,885.028,344.499z M862.004,333.826
			c-10.892,0-20.943,5.924-26.287,15.277c-12.675-5.644-18.728-20.402-13.503-33.375c3.978-9.874,13.425-16.255,24.069-16.255
			c3.317,0,6.574,0.634,9.681,1.885c13.236,5.332,19.681,20.414,14.404,33.659C867.655,334.23,864.857,333.826,862.004,333.826z
			 M814.558,305.436l3.196-8.85l3.182,1.146C818.494,299.974,816.356,302.567,814.558,305.436z M788.76,291.882
			c3.562,6.5,4.38,13.998,2.303,21.113c-3.435,11.765-14.383,19.981-26.625,19.981c-2.624,0-5.245-0.377-7.789-1.12
			c-7.115-2.077-12.996-6.801-16.559-13.301s-4.38-13.998-2.303-21.113c3.434-11.765,14.383-19.981,26.625-19.981
			c2.624,0,5.245,0.377,7.789,1.12C779.316,280.659,785.197,285.382,788.76,291.882z M444.535,260.034l-12.984,17.889l-19.554-8.934
			C422.775,265.382,433.627,262.39,444.535,260.034z M508.321,253.429c5.015,0.041,10.032,0.222,15.049,0.53l-17.186,15.312
			l-17.238-15.325C495.398,253.565,501.857,253.374,508.321,253.429z M561.166,258.821l-20.646,12.815l-14.915-17.514
			C537.474,254.946,549.337,256.511,561.166,258.821z M597.489,268.282l-23.103,10.159l-12.633-19.501
			C573.714,261.301,585.636,264.415,597.489,268.282z M629.118,290.264c-0.571,0-1.15-0.026-1.723-0.079
			c-4.971-0.453-9.469-2.816-12.663-6.652c-3.194-3.837-4.704-8.688-4.25-13.659c0.847-9.285,8.23-16.364,17.393-16.937
			c-0.023,12.128,6.507,23.19,16.651,29.201C641.163,287.077,635.522,290.264,629.118,290.264z M628.278,247.792
			c-0.137,0.883-0.227,1.763-0.294,2.64c-10.516,0.527-19.023,8.598-19.992,19.216c-0.515,5.636,1.197,11.136,4.819,15.485
			s8.721,7.028,14.357,7.543c0.646,0.059,1.303,0.089,1.949,0.089c7.352,0,13.818-3.702,17.615-9.422
			c1.259,0.624,2.568,1.166,3.917,1.634l-0.908,5.209c-5.076,5.646-12.432,9.138-20.613,9.138c-0.848,0-1.707-0.039-2.557-0.117
			c-7.382-0.673-14.059-4.181-18.802-9.877s-6.984-12.898-6.311-20.28c1.312-14.383,13.18-25.23,27.602-25.23
			c0.026,0,0.053,0.002,0.08,0.002C628.783,245.113,628.489,246.435,628.278,247.792z M485.063,254.178l-15.691,17.144
			l-19.997-12.284C461.221,256.684,473.125,255.046,485.063,254.178z M403.217,289.504c3.666-4.559,5.878-9.955,6.495-15.634
			l1.299-2.582l20.016,9.143c-10.698,3.251-20.897,7.249-30.452,11.952C401.506,291.485,402.393,290.529,403.217,289.504z
			 M447.191,260.63l19.522,11.992c-11.519,1.611-22.7,4.004-33.403,7.131L447.191,260.63z M487.102,255.653l16.32,14.509
			c-10.577-0.033-21.011,0.56-31.207,1.757L487.102,255.653z M524.315,256.464l13.714,16.104
			c-9.528-1.314-19.276-2.101-29.163-2.339L524.315,256.464z M560.765,262.013l11.561,17.844c-9.55-2.79-19.473-5.003-29.671-6.605
			L560.765,262.013z M597.062,271.201l2.052,4.415c0.743,5.591,3.037,10.873,6.735,15.313c0.267,0.32,0.542,0.63,0.82,0.938
			l0.824,1.772c-10.052-5.087-20.831-9.397-32.165-12.881L597.062,271.201z M591.855,252.08l-1.038,4.491
			c-1.779-0.533-3.561-1.042-5.343-1.541l0.971-4.201L591.855,252.08z M584.01,250.266l-0.945,4.089
			c-4.505-1.223-9.019-2.332-13.539-3.34l0.899-3.889L584.01,250.266z M568.573,244.041l-4.66-1.077l1.653-7.151l4.659,1.077
			L568.573,244.041z M563.131,235.251l-2.216,9.587l7.095,1.639l-0.921,3.985c-5.443-1.168-10.896-2.164-16.353-3.02l3.303-14.292
			L563.131,235.251z M407.23,267.552c0.8,7.369-1.317,14.608-5.962,20.386c-4.645,5.776-11.261,9.397-18.63,10.197
			c-1.006,0.109-2.026,0.165-3.032,0.165c-14.174,0-26.019-10.644-27.552-24.757c-1.651-15.212,9.381-28.932,24.592-30.583
			c1.006-0.109,2.026-0.165,3.031-0.165C393.853,242.795,405.698,253.439,407.23,267.552z M344.307,293.093l-25.202,4.263
			l-14.508-79.719c3.312-0.762,13.611-3.022,28.264-5.206c14.652-2.185,24.958-2.849,28.263-3.02l4.351,34.418
			c-9.439,5.021-15.759,14.841-16.064,25.862l-3.882,0.567l2.465,16.645l2.473-0.365l-2.098-14.168l1.071-0.156
			c0.03,0.531,0.072,1.064,0.13,1.599c0.727,6.697,3.586,12.675,7.855,17.293C353.701,291.6,349.33,292.244,344.307,293.093z
			 M649.005,294.415l-3.577,20.517c-4.795-0.847-9.598-1.658-14.409-2.429l1.392-10.859
			C638.73,300.97,644.465,298.373,649.005,294.415z M711.873,301.941l3.766,0.951l0.611-2.424l-3.801-0.96l0.835-3.524
			c0.917,0.068,1.834,0.114,2.751,0.114c2.832,0,5.599-0.319,8.267-0.917l-0.267,1.18l2.438,0.551l0.553-2.445
			c4.778-1.457,9.166-3.851,12.945-6.991c-2.013,2.758-3.592,5.871-4.583,9.265c-0.794,2.721-1.191,5.494-1.216,8.252l-11.688-2.952
			l-3.754,14.821l2.424,0.613l3.141-12.399l9.968,2.517c0.33,4.213,1.545,8.346,3.637,12.162c1.89,3.448,4.382,6.433,7.332,8.855
			c-2.548-0.698-5.398-1.473-8.558-2.325c-0.277-1.019-0.47-1.674-0.507-1.796l-0.533-1.795l-3.062,2.489
			c-5.599-1.499-12.029-3.201-19.342-5.108l-5.321-1.387L711.873,301.941z M782.612,261.215c-4.302-1.367-13.947-4.353-29.602-8.783
			c-0.503-3.022-1.383-5.981-2.628-8.822c14.323,3.792,25.733,6.902,34.716,9.416L782.612,261.215z M683.173,240.446
			c-0.425-0.724-0.888-1.431-1.391-2.118c-3.914-5.35-9.677-8.854-16.228-9.87c-1.269-0.196-2.557-0.296-3.831-0.296
			c-12.304,0-22.604,8.839-24.493,21.018c-1.015,6.55,0.581,13.104,4.495,18.453s9.678,8.854,16.228,9.87
			c0.724,0.112,1.454,0.184,2.185,0.232c-1.924,1.734-3.629,3.714-5.065,5.896c-7.502-1.625-14.07-5.877-18.642-12.125
			c-4.948-6.764-6.967-15.05-5.683-23.331c2.348-15.149,15.66-26.574,30.965-26.574c1.61,0,3.241,0.126,4.846,0.375
			c8.281,1.283,15.567,5.716,20.517,12.479c0.029,0.04,0.056,0.082,0.085,0.122C685.658,236.388,684.323,238.352,683.173,240.446z
			 M423.356,255.812l-0.443-1.78l-0.645-2.595l11.145-2.772l-2.826-11.356l7.426-1.843l3.879,15.596
			C435.694,252.446,429.514,254.026,423.356,255.812z M421.686,239.518l6.475-1.607l2.222,8.932l-8.718,2.168l0,0l0,0l-2.222-8.935
			L421.686,239.518z M368.003,185.332l6.634,55.386c-2.376,0.398-4.647,1.068-6.786,1.975l-4.534-35.871l-1.139,0.038
			c-0.114,0.004-11.651,0.409-29.685,3.098c-18.02,2.686-29.522,5.492-29.636,5.521l-1.142,0.28l15.373,84.474l27.637-4.675
			c5.911-0.999,10.91-1.714,14.992-2.227c4.672,4.09,10.602,6.747,17.103,7.341l0.715,6.589
			c-21.323,2.514-42.514,5.771-63.538,9.761l-23.19-120.184c3.185-0.673,13.468-2.717,37.938-6.611
			C353.65,186.262,364.717,185.484,368.003,185.332z M252.273,343.136c-0.015-0.493-0.085-0.988-0.226-1.475
			c-0.726-2.51-3.056-4.263-5.667-4.263c-0.554,0-1.106,0.079-1.642,0.233c-0.874,0.253-1.644,0.711-2.299,1.304l-6.23-0.991
			c29.016-8.217,58.453-14.999,88.216-20.306c-14.073,11.073-28.607,21.764-43.477,31.964L252.273,343.136z M252.509,372.077
			l-45.271,13.101l4.373-27.095l7.237-2.184l13.642-4.116L252.509,372.077z M250.061,406.694l-2.966,0.658
			c-1.095-2.556-3.028-4.43-5.554-5.427c0.429-0.065,0.863-0.102,1.301-0.102C244.468,401.823,248.218,402.327,250.061,406.694z
			 M231.089,380.878l4.708,20.282c-0.825,0.073-1.636,0.215-2.387,0.432c-0.997,0.289-1.836,0.679-2.542,1.152l-6.899-19.806
			L231.089,380.878z M230.853,407.005c0.14-1.005,0.637-2.255,3.252-3.012c0.885-0.257,1.878-0.393,2.872-0.393
			c1.794,0,5.899,0.471,7.744,4.535l-13.284,3.102C231.016,409.711,230.685,408.211,230.853,407.005z M239.736,399.76
			c-0.57,0.165-1.061,0.363-1.518,0.574l-0.139-0.399l-4.585-19.754l3.795-1.098l4.712,20.298
			C241.234,399.439,240.472,399.548,239.736,399.76z M180.99,337.295c-0.141-2.943-0.718-5.881-1.734-8.735
			c-0.836-2.346-1.951-4.536-3.289-6.551l-2.238-6.811c1.088-0.566,2.141-1.179,3.155-1.84l12.293,36.653
			c-1.201,0.41-2.403,0.818-3.602,1.234L180.99,337.295z M175.826,350.611c-3.179,6.695-8.775,11.753-15.758,14.239
			c-3.011,1.072-6.144,1.616-9.309,1.616c-11.707,0-22.213-7.413-26.143-18.447c-5.133-14.415,2.417-30.318,16.832-35.452
			c3.011-1.072,6.143-1.616,9.309-1.616c11.707,0,22.213,7.413,26.143,18.447C179.387,336.381,179.005,343.915,175.826,350.611z
			 M141.932,367.63c-0.395,0.16-0.792,0.318-1.187,0.478l-0.453-1.042C140.834,367.267,141.378,367.46,141.932,367.63z
			 M145.493,248.684c3.552-1.167,7.23-1.759,10.933-1.759c15.151,0,28.511,9.678,33.244,24.083
			c5.844,17.781-3.401,36.957-20.689,43.594c-2.572-1.944-5.442-3.481-8.518-4.529c1.633-0.237,3.25-0.602,4.834-1.123
			c14.896-4.896,23.033-20.997,18.138-35.895c-3.846-11.703-14.701-19.566-27.012-19.566c-3.009,0-5.998,0.48-8.882,1.429
			c-14.896,4.896-23.033,20.998-18.138,35.895c2.809,8.549,9.366,15.032,17.491,17.915c-2.13,0.276-4.235,0.754-6.285,1.484
			c-1.03,0.367-2.026,0.787-2.99,1.251c-6.656-4.24-11.855-10.702-14.45-18.601c-2.919-8.882-2.204-18.368,2.012-26.713
			C129.397,257.805,136.611,251.603,145.493,248.684z M131.778,290.032c-4.465-13.586,2.957-28.272,16.543-32.738
			c2.633-0.865,5.358-1.304,8.102-1.304c11.228,0,21.129,7.172,24.637,17.848c4.465,13.587-2.957,28.273-16.543,32.738
			c-2.633,0.865-5.359,1.304-8.104,1.304C145.186,307.879,135.286,300.708,131.778,290.032z M114.433,322.774
			c-2.833,1.231-5.822,1.855-8.884,1.855c-8.894,0-16.932-5.27-20.478-13.425c-4.905-11.285,0.286-24.457,11.57-29.362
			c2.833-1.231,5.822-1.855,8.884-1.855c4.969,0,9.669,1.647,13.469,4.521c0.216,3.07,0.814,6.135,1.8,9.136
			c1.503,4.573,3.822,8.697,6.758,12.243C126.364,313.125,121.647,319.638,114.433,322.774z M120.298,271.827
			c-0.376-0.182-0.756-0.352-1.139-0.521c0.499-0.194,0.984-0.382,1.473-0.572C120.517,271.098,120.401,271.461,120.298,271.827z
			 M129.019,256.319c-2.393,2.567-4.442,5.483-6.069,8.703c-0.431,0.852-0.816,1.718-1.178,2.591
			c-1.95,0.751-3.989,1.545-6.104,2.374c-1.57-0.493-3.183-0.874-4.829-1.134l-3.013-7.7l13.579-5.574l-0.949-2.312l-15.854,6.508
			l3.422,8.743c-0.828-0.061-1.662-0.092-2.501-0.092c-4.65,0-9.188,0.948-13.487,2.816c-2.115,0.92-4.089,2.032-5.91,3.305
			l-1.608-3.825l13.773-5.654l-0.949-2.312l-16.106,6.611l2.837,6.747c-2.364,1.939-4.433,4.164-6.16,6.609l-7.358-16.986
			c3.358-1.523,13.963-6.271,26.796-11.355c12.798-5.069,23.623-9.228,27.119-10.564L129.019,256.319z M93.031,273.534
			c3.982-1.731,8.185-2.609,12.49-2.609c5.034,0,9.862,1.218,14.172,3.4c-0.488,2.336-0.75,4.707-0.781,7.087
			c-3.916-2.508-8.535-3.925-13.387-3.925c-3.407,0-6.731,0.694-9.88,2.062c-12.549,5.455-18.32,20.103-12.866,32.651
			c3.942,9.069,12.88,14.929,22.771,14.929c3.407,0,6.731-0.693,9.881-2.062c7.382-3.209,12.415-9.6,14.201-16.872
			c1.674,1.71,3.504,3.252,5.466,4.608c-0.003,0.009-0.007,0.018-0.01,0.027c-6.174,3.737-10.671,9.508-12.932,16.097
			c-1.304,0.81-2.677,1.531-4.111,2.155c-3.982,1.731-8.185,2.609-12.49,2.609c-12.505,0-23.807-7.409-28.791-18.876
			C69.867,298.95,77.165,280.431,93.031,273.534z M231.128,330.55c-0.77-3.496-6.646-6.305-11.815-7.355
			c8.736-2.497,17.921-4.959,27.364-7.259c22.4-5.457,44.151-10.093,61.929-13.652l2.934,15.207
			c-27.213,5.242-54.144,11.706-80.713,19.384C231.296,335.434,231.712,333.198,231.128,330.55z M193.331,305.733
			c1.543-4.603,5.676-8.28,11.056-9.836c1.45-0.42,2.929-0.633,4.396-0.633c3.636,0,6.84,1.365,8.285,3.391
			c-8.424,1.49-13.271,6.376-14.374,10.795c-0.624,2.501-0.109,4.825,1.415,6.627c-3.071,1.149-6.932,2.466-8.377,2.618
			C192.77,314.535,191.917,309.949,193.331,305.733z M220.788,309.03c0.767,2.65,0.472,5.436-0.816,7.867
			c-2.138,0.078-4.206-0.909-5.483-2.652l-2.017,1.479c1.403,1.914,3.499,3.161,5.784,3.549c-1.27,1.326-2.863,2.309-4.674,2.832
			c-0.961,0.278-1.95,0.42-2.938,0.42h-0.001c-2.973-0.001-5.739-1.276-7.694-3.359c1.807-0.645,3.369-1.252,3.964-1.486l2.184-0.86
			l-1.933-1.332c-1.87-1.289-2.596-3.218-2.044-5.432c0.728-2.919,3.787-6.265,8.995-8.056
			C217.274,303.11,219.823,305.695,220.788,309.03z M220.58,318.12L220.58,318.12L220.58,318.12L220.58,318.12z M194.955,321.402
			c0,0,3.445-0.718,5.449-1.368c1.579,1.993,3.711,3.503,6.128,4.314c-7.535,2.281-14.616,4.54-21.087,6.681l-3.445-10.271
			c3.044-0.909,6.464-1.92,10.21-3.013C192.719,318.707,194.289,321.402,194.955,321.402z M246.085,313.506
			c-8.698,2.119-17.18,4.375-25.295,6.669c0.479-0.594,0.917-1.227,1.293-1.909c1.574-2.857,2.004-6.125,1.262-9.278
			c6.532-1.771,13.415-3.594,20.553-5.426c24.387-6.26,47.001-11.15,62.206-14.247l2.029,10.513
			C290.323,303.393,268.525,308.04,246.085,313.506z M222.516,344.072l-10.537-8.394c-1.171-1.048-1.272-2.854-0.225-4.024
			c1.006-1.125,2.895-1.234,4.024-0.225l0.002-0.002l9.218,7.267l15.866,2.522c-0.452,1.188-0.514,2.483-0.154,3.725
			c0.017,0.06,0.047,0.113,0.066,0.172L222.516,344.072z M243.111,344.246c-0.252-0.872-0.15-1.791,0.289-2.587
			c0.438-0.796,1.161-1.373,2.033-1.625c0.31-0.09,0.629-0.136,0.948-0.136c1.504,0,2.847,1.011,3.265,2.458
			c0.252,0.873,0.15,1.791-0.289,2.587c-0.438,0.796-1.161,1.373-2.033,1.625c-0.31,0.09-0.629,0.136-0.948,0.136
			C244.873,346.704,243.53,345.693,243.111,344.246z M299.55,192.6l-0.075-0.379l-35.01,6.923l4.003,18.123l2.441-0.539
			l-3.452-15.626l20.831-4.119l4.366,22.628l-22.656,4.418l3.83,17.341l2.441-0.539l-3.277-14.839l20.135-3.926l3.649,18.91
			l-21.667,5.514l3.66,16.581l2.441-0.539l-3.138-14.216l19.179-4.882l3.945,20.443l-21.037,5.329l3.508,15.897l2.441-0.539
			l-2.986-13.53l18.548-4.698l3.961,20.526c-15.239,3.103-37.909,8.005-62.353,14.279c-7.201,1.848-14.147,3.688-20.731,5.474
			c-1.032-2.285-2.691-4.195-4.734-5.542c0.412-0.068,0.827-0.133,1.258-0.182l1.469-0.17l-0.411-1.42
			c-1.113-3.848-5.779-6.535-11.346-6.535c-0.782,0-1.565,0.058-2.346,0.161l-0.457-1.392l30.028-8.567l-0.686-2.404l-32.529,9.28
			l1.177,3.582c-0.092,0.025-0.185,0.043-0.278,0.07c-6.167,1.785-10.927,6.062-12.731,11.443c-1.147,3.421-1.046,7.021,0.23,10.502
			c-3.655,1.067-7.004,2.057-9.984,2.947l-2.191-6.534c5.929-4.486,10.332-10.61,12.759-17.487l6.059-1.729l-0.687-2.404
			l-4.493,1.282c1.804-6.781,1.74-14.138-0.609-21.287c-2.566-7.807-7.499-14.315-13.848-18.844l5.687-1.681l-0.709-2.398
			l-7.743,2.288c-5.624-3.307-12.142-5.167-19.007-5.167c-2.626,0-5.238,0.284-7.808,0.833l-3.48-10.616l31.145-10.181l-0.776-2.377
			l-33.523,10.958l4.201,12.816c-0.492,0.14-0.983,0.289-1.471,0.45c-1.974,0.649-3.867,1.457-5.675,2.398l-2.675-7.285
			l-4.93-13.835c6.281-2.374,35.861-13.172,85.016-25.331c49.644-12.28,82.329-18.149,88.875-19.285l1.536,8.335
			C304.03,191.795,301.606,192.226,299.55,192.6z M70.348,400.286l-11-21.317c4.4-3.386,7.795-7.73,10.04-12.578l10.234,20.715
			l1.122-0.556c0.186-0.093,18.967-9.385,45.864-20.57l2.943,6.77C109.52,381.206,89.774,390.388,70.348,400.286z M80.757,383.759
			l-10.114-20.472c1.252-3.591,1.903-7.386,1.901-11.224l1.623,3.302l2.244-1.104l-4.662-9.484
			c-0.261-1.174-0.585-2.342-0.977-3.499l12.49-5.4l-0.992-2.295l-12.397,5.359c-0.333-0.787-0.688-1.569-1.086-2.341
			c-1.147-2.223-2.521-4.274-4.075-6.145l-5.719-11.635l13.511-5.764l-0.98-2.299l-15.938,6.797l3.826,7.785
			c-3.051-2.364-6.489-4.188-10.179-5.393l-2.67-5.405c2.351-1.232,9.207-4.659,25.111-11.602c0.075,4.311,0.974,8.676,2.797,12.87
			c3.166,7.283,8.703,13.032,15.466,16.546l6.165,13.408l2.271-1.045l-4.954-10.775c3.805,1.459,7.907,2.245,12.136,2.245
			c2.614,0,5.191-0.311,7.712-0.905l12.344,28.4C102.388,373.346,85.196,381.598,80.757,383.759z M191.541,349.2l-0.594-1.77
			l-4.705-14.029c6.114-2.023,12.773-4.151,19.848-6.303c-2.223,2.618-2.566,5.753-1.904,8.275l1.949,8.418l0.131,0.565
			C201.343,345.929,196.435,347.543,191.541,349.2z M206.612,334.773c-0.29-1.104-1.327-6.737,6.693-9.275
			c0.531-0.168,1.216-0.253,2.037-0.253c5.296,0,12.779,3.276,13.345,5.843c0.556,2.526-0.045,4.592-0.446,5.59l-2.206-0.351
			l-8.711-6.866c-0.964-0.812-2.18-1.256-3.443-1.256c-1.522,0-2.976,0.649-3.989,1.783c-1.967,2.197-1.778,5.587,0.476,7.6
			l11.213,8.936l8.929,0.509l0.774,2.504l-19.865,5.994L206.612,334.773z M126.107,220.089l10.656,29.903
			c-2.075,1.272-4.012,2.739-5.791,4.383l-5.024-13.799l-1.186,0.451c-0.126,0.048-12.773,4.865-28.335,11.029
			c-15.586,6.174-27.912,11.859-28.034,11.916l-1.107,0.512l8.999,20.776c-0.219,0.376-0.427,0.758-0.63,1.142
			c-2.031,0.867-3.996,1.712-5.912,2.54l-17.514-39.071c3.998-1.836,18.329-8.339,36.814-15.774
			C107.481,226.681,122.002,221.525,126.107,220.089z M74.077,289.798c-1.312,3.301-2.103,6.806-2.334,10.383
			c-21.731,9.454-27.19,12.596-27.466,12.758l-1.006,0.588l2.734,5.534c-2.381-0.524-4.841-0.806-7.349-0.806
			c-3.739,0-7.477,0.651-11.027,1.877l-3.87-7.265C28.07,310.679,44.808,302.357,74.077,289.798z M253.747,367.498
			c-0.462,0.291-0.929,0.574-1.391,0.864l-18.402-18.653l-0.781-2.525l9.326,0.532c1.054,0.925,2.416,1.488,3.878,1.488
			c0.554,0,1.106-0.079,1.642-0.233c1.515-0.438,2.768-1.44,3.528-2.82c0.1-0.181,0.188-0.366,0.268-0.554l26.299,5.931
			C270.073,356.994,261.95,362.334,253.747,367.498z M339.316,347.076l3.464,3.69l8.125-2.214l1.662,3.747l-8.967,6.234l9.027,3.107
			l-0.906,2.688l-11.833-0.701l-5.666,6.071l-11.919-10.54l1.587-14.858l8.137,4.539L339.316,347.076z M333.647,390.956
			l-10.203-10.38l-19.009,2.292l-2.428,16.44l-3.588,1.034l-5.349-16.088l-1.4-10.19l-9.49-11.575l12.193,4.1l27.573-4.093
			l10.569,9.033l-2.901,3.109l8.524,15.413L333.647,390.956z M330.377,345.058l-8.571-4.781l-1.934,18.103l-35.594-8.027
			c15.533-10.719,30.703-21.963,45.347-33.62c7.199-1.241,14.416-2.396,21.65-3.465
			C346.117,323.685,338.458,334.434,330.377,345.058z M710.006,349.115L710.006,349.115L710.006,349.115L710.006,349.115z
			 M712.579,350.806c0.188,0.009,0.375,0.02,0.563,0.02c2.724,0,5.429-0.903,7.552-2.604l-1.562-1.951
			c-3.426,2.797-8.835,1.887-8.835,1.887c-1.367-1.858-2.268-3.721-2.342-5.163c-0.069-1.36,0.551-2.162,2.013-2.599
			c1.772-0.529,3.279-1.799,4.874-3.143c2.368-1.995,4.816-4.059,8.446-4.059c0.742,0,1.522,0.088,2.322,0.262l0.587,0.127
			l8.079-6.566c1.125,4.167,3.651,14.415,2.684,19.123c-1.157,5.627-6.954,9.87-13.484,9.87c-0.933,0-1.866-0.088-2.775-0.261
			C717.98,355.235,714.986,353.217,712.579,350.806z M734.906,413.67L734.906,413.67L734.906,413.67L734.906,413.67z
			 M745.811,405.326c6.884,0,10.492-1.608,12.065-5.377c1.796-4.302,0.665-6.32-0.769-8.875c-1.466-2.614-2.982-5.317-0.757-10.157
			c1.886-4.102,5.744-6.551,10.32-6.551c0.904,0,1.825,0.097,2.736,0.288c0.874,0.183,1.405,0.438,1.625,0.776
			c0.188,0.292,0.215,0.755,0.078,1.379c-0.306,1.393-0.919,1.508-1.573,1.508c-0.299,0-0.641-0.041-1.075-0.128
			c-0.607-0.122-1.249-0.184-1.906-0.184c-2.37,0-5.254,0.818-6.239,3.114c-1.264,2.939-0.461,4.583,0.953,7.021
			c1.486,2.562,3.336,5.748,0.915,11.983c-2.976,7.659-9.936,11.384-21.28,11.384c-1.636,0-3.231-0.081-4.745-0.202
			c2.322-1.675,4.449-3.742,6.307-6.101C743.66,405.283,744.782,405.326,745.811,405.326z M747.299,379.769
			c0.513,3.377,0.391,6.908-0.403,10.442c-1.964,8.749-7.716,16.812-14.716,20.675l-1.015-0.183
			c-3.155-1.136-8.288-2.684-16.282-4.378c-2.307-0.489-4.414-0.909-6.369-1.283c2.387-4.518,6.972-4.748,7.123-4.756l11.902,0.516
			l-0.335-1.578c-0.542-2.557-0.506-5.21,0.108-7.886c0.941-4.106,3.709-9.545,7.559-11.779c1.973-1.146,4.104-1.385,6.331-0.714
			l0.067-0.222l0.656-2.171c-2.917-0.881-5.712-0.563-8.31,0.944c-4.519,2.623-7.646,8.611-8.74,13.383
			c-0.571,2.49-0.699,4.968-0.385,7.389l-6.271-0.27l7.403-23.762l-1.193-0.372l-1.194-0.372l-7.6,24.397
			c-0.27,0.011-6.764,0.368-9.668,6.779c-4.773-0.866-8.33-1.912-10.741-2.209c2.383-5.565,7.461-4.907,7.682-4.891l5.84,0.402
			l7.542-30.114l0.125-0.5l-2.426-0.607l-4.37,17.45c-2.746-3.712-4.396-10.483-2.637-15.176c3.079-8.207,11.25-11.738,21.864-9.454
			c4.435,0.956,8.401,3.166,11.546,6.343c0,0,2.28,2.556,3.161,3.933C745.502,372.791,746.756,376.194,747.299,379.769z
			 M660.192,219.134c-8.513,0.372-16.235,3.853-21.999,9.427c-6.355-1.726-13.069-2.94-20.098-3.445l30.596-20.542L660.192,219.134z
			 M597.775,235.747l-18.032-4.168l2.44,8.007l-1.687,7.302l-9.508-2.198l1.673-7.237l3.745,0.865l0.562-2.436l-3.744-0.865l0-0.001
			l-21.058-4.866v0l-3.744-0.865l-0.562,2.436l3.744,0.865l-3.347,14.482c-1.808-0.268-3.616-0.521-5.424-0.755l1.078-17.974
			l-44.454-2.668l-1.101,18.343c-1.141,0.03-2.282,0.091-3.423,0.135l-1.771-18.251l-44.326,4.301l1.846,19.027
			c-2.119,0.407-4.237,0.825-6.353,1.279l-3.891-15.644l4.777-1.186l-0.603-2.426l-8.38,2.081l-1.46-5.878l-14.931,3.714
			l1.459,5.871l-4.889,1.213l0,0.001l-5.748,1.427l0.603,2.426l5.749-1.428l2.222,8.936l-6.961,1.729l1.814,7.295
			c-1.96,0.635-3.915,1.306-5.869,1.982c-2.219-6.425-6.509-11.811-12.042-15.422l27.748-30.814l18.949-20.681
			c2.159-1.664,50.006-37.85,109.801-32.64l59.543,64.988L597.775,235.747z M550.204,158.361
			c-45.192-3.032-83.298,16.835-99.958,27.297l62.484-68.198L550.204,158.361z M375.075,172.284l26.043,23.324
			c-10.291-0.812-20.061,0.469-29.013,2.946l-1.887-15.758h-1.109c-0.126,0-1.207,0.007-3.632,0.178L375.075,172.284z
			 M115.44,212.202c6.502-2.512,40.691-15.37,96.496-30.206c55.885-14.858,92.486-20.141,99.38-21.064l4.884,28.796
			c-2.496,0.413-4.79,0.799-6.876,1.155l-1.987-10.785l-1.21,0.2c-0.341,0.056-34.721,5.789-90.278,19.531
			c-49.122,12.151-78.8,22.966-85.255,25.403l-2.963-8.313l-1.168,0.4c-0.069,0.023-3.035,1.043-8.073,2.871L115.44,212.202z"/>
		<path class="st1" d="M674.852,255.01l2.471,0.383c0.645-4.158-0.368-8.319-2.854-11.716c-2.484-3.396-6.144-5.621-10.302-6.266
			l-0.383,2.471c3.499,0.542,6.576,2.414,8.667,5.271S675.395,251.511,674.852,255.01z"/>
		<path class="st1" d="M720.516,239.747l-0.582,2.432c9.049,2.167,14.648,11.291,12.481,20.341l2.432,0.582
			C737.334,252.711,730.905,242.235,720.516,239.747z"/>
		<path class="st1" d="M783.008,295.035c-2.721-4.964-7.211-8.571-12.644-10.157c-1.942-0.566-3.943-0.854-5.948-0.854
			c-9.349,0-17.71,6.273-20.333,15.256c-3.273,11.217,3.188,23.006,14.403,26.281c1.941,0.566,3.942,0.854,5.947,0.854
			c9.349,0,17.71-6.273,20.333-15.257C786.353,305.724,785.728,299.999,783.008,295.035z M764.434,323.915
			c-1.768,0-3.532-0.253-5.246-0.754c-9.893-2.889-15.592-13.287-12.704-23.18c2.313-7.924,9.688-13.457,17.933-13.457
			c1.768,0,3.533,0.253,5.247,0.754c4.792,1.398,8.753,4.58,11.152,8.958s2.95,9.429,1.551,14.221
			C780.054,318.38,772.679,323.915,764.434,323.915z"/>
		<path class="st1" d="M773.668,307.918l2.4,0.701c0.907-3.11,0.55-6.388-1.007-9.229c-1.558-2.842-4.128-4.906-7.237-5.814
			l-0.701,2.4c2.469,0.721,4.51,2.359,5.746,4.615S774.389,305.449,773.668,307.918z"/>
		<path class="st1" d="M680.39,321.374c9.963,0,18.677-7.088,20.721-16.854c1.159-5.54,0.092-11.2-3.006-15.938
			s-7.855-7.984-13.396-9.144c-1.438-0.301-2.904-0.453-4.36-0.453c-9.964,0-18.678,7.088-20.721,16.854
			c-1.159,5.54-0.092,11.2,3.006,15.938c3.098,4.736,7.855,7.984,13.396,9.144C677.467,321.221,678.934,321.374,680.39,321.374z
			 M664.727,310.408c-2.732-4.178-3.674-9.17-2.651-14.057c1.802-8.614,9.487-14.866,18.273-14.866c1.284,0,2.579,0.135,3.849,0.4
			c4.887,1.022,9.082,3.886,11.814,8.064s3.674,9.171,2.651,14.058c-1.803,8.614-9.487,14.866-18.273,14.866
			c-1.284,0-2.579-0.135-3.849-0.4C671.654,317.451,667.459,314.586,664.727,310.408z"/>
		<path class="st1" d="M689.794,302.152l2.447,0.512c0.663-3.172,0.053-6.411-1.721-9.123c-1.773-2.711-4.496-4.569-7.668-5.233
			l-0.512,2.447C687.538,291.841,690.881,296.955,689.794,302.152z"/>
		<path class="st1" d="M853.512,307.446l-0.934,2.318c8.631,3.477,12.825,13.327,9.35,21.958l2.318,0.934
			C868.237,322.747,863.422,311.437,853.512,307.446z"/>
		<path class="st1" d="M861.973,385.278c8.231,0,15.784-4.824,19.241-12.29c2.378-5.137,2.614-10.892,0.664-16.205
			c-1.95-5.314-5.853-9.55-10.988-11.929c-2.818-1.305-5.811-1.966-8.893-1.966c-8.231,0-15.784,4.824-19.241,12.29
			c-2.378,5.137-2.614,10.892-0.664,16.205c1.95,5.314,5.853,9.55,10.988,11.929C855.898,384.617,858.891,385.278,861.973,385.278z
			 M844.438,370.523c-1.72-4.688-1.512-9.764,0.587-14.294c3.049-6.586,9.711-10.841,16.972-10.841c2.717,0,5.355,0.583,7.842,1.735
			c4.53,2.097,7.973,5.833,9.692,10.52c1.72,4.688,1.512,9.764-0.587,14.294c-3.049,6.586-9.711,10.841-16.972,10.841
			c-2.717,0-5.355-0.583-7.842-1.735C849.601,378.946,846.158,375.21,844.438,370.523z"/>
		<path class="st1" d="M870.723,368.129l2.27,1.051c2.81-6.069,0.158-13.293-5.91-16.104l-1.051,2.268
			C870.85,357.577,872.954,363.312,870.723,368.129z"/>
		<path class="st1" d="M100.254,290.153c6.7-2.915,14.526,0.169,17.439,6.871l2.293-0.996c-3.464-7.968-12.762-11.63-20.729-8.168
			L100.254,290.153z"/>
		<path class="st1" d="M150.371,263.529l0.78,2.375c4.282-1.406,8.856-1.062,12.879,0.97c4.023,2.033,7.014,5.511,8.421,9.794
			l2.375-0.781c-1.616-4.917-5.049-8.91-9.668-11.244C160.539,262.309,155.287,261.913,150.371,263.529z"/>
		<path class="st1" d="M131.616,329.621c-2.428,5.112-2.719,10.865-0.82,16.197c3.001,8.426,11.023,14.087,19.963,14.087
			c2.418,0,4.81-0.415,7.108-1.233c11.007-3.921,16.773-16.065,12.853-27.071c-3.001-8.426-11.023-14.087-19.962-14.087
			c-2.419,0-4.811,0.415-7.109,1.233C138.317,320.646,134.043,324.507,131.616,329.621z M150.758,320.013
			c7.885,0,14.96,4.993,17.607,12.425c3.458,9.709-1.628,20.42-11.336,23.878c-2.028,0.723-4.138,1.089-6.27,1.089
			c-7.885,0-14.961-4.993-17.608-12.425c-1.675-4.704-1.418-9.777,0.723-14.287s5.911-7.916,10.614-9.591
			C146.517,320.379,148.626,320.013,150.758,320.013z"/>
		<path class="st1" d="M147.528,329.638c2.423-0.864,5.037-0.73,7.36,0.372c2.323,1.104,4.078,3.045,4.941,5.468l2.355-0.838
			c-1.087-3.053-3.297-5.499-6.224-6.889c-2.927-1.389-6.22-1.556-9.271-0.469L147.528,329.638z"/>
		<path class="st1" d="M379.667,249.356c-0.767,0-1.545,0.042-2.312,0.125c-5.627,0.611-10.68,3.377-14.227,7.788
			c-3.547,4.411-5.164,9.939-4.553,15.566c1.17,10.777,10.216,18.904,21.041,18.904c0.768,0,1.546-0.042,2.313-0.125
			c11.616-1.262,20.04-11.738,18.779-23.354C399.539,257.483,390.493,249.356,379.667,249.356z M398.224,268.53
			c1.112,10.246-6.318,19.487-16.563,20.599c-0.678,0.074-1.366,0.111-2.043,0.111c-9.546,0-17.523-7.168-18.556-16.674
			c-0.539-4.963,0.887-9.84,4.016-13.73c3.128-3.891,7.585-6.33,12.548-6.868c0.678-0.074,1.365-0.111,2.042-0.111
			C389.214,251.856,397.192,259.024,398.224,268.53z"/>
		<path class="st1" d="M389.216,269.508l2.485-0.27c-0.723-6.649-6.716-11.477-13.368-10.75l0.27,2.486
			C383.885,260.391,388.643,264.23,389.216,269.508z"/>
		<path class="st1" d="M60.736,340.756c-4.278-8.29-12.736-13.44-22.072-13.44c-3.923,0-7.851,0.957-11.36,2.769
			c-12.16,6.274-16.947,21.272-10.672,33.432c4.278,8.291,12.736,13.441,22.072,13.441c3.923,0,7.851-0.957,11.36-2.769
			C62.223,367.915,67.01,352.917,60.736,340.756z M48.917,371.968c-3.201,1.651-6.638,2.489-10.214,2.489
			c-8.397,0-16.003-4.632-19.851-12.088c-5.643-10.935-1.337-24.421,9.597-30.063c3.201-1.652,6.638-2.49,10.214-2.49
			c8.397,0,16.003,4.632,19.851,12.087C64.157,352.837,59.851,366.325,48.917,371.968z"/>
		<path class="st1" d="M42.714,339.51c3.373,1.076,6.124,3.401,7.748,6.548l2.222-1.146c-1.93-3.739-5.2-6.504-9.209-7.783
			c-4.008-1.279-8.276-0.922-12.016,1.009l1.146,2.221C35.75,338.735,39.342,338.434,42.714,339.51z"/>
		<path class="st1" d="M844.471,214.06c-0.749-0.325-1.519-0.627-2.298-0.898c-1.699-11.589-9.336-21.618-20.084-26.298
			c-13.517-5.886-29.338-2.326-39.038,8.617c-4.066-4.98-9.298-8.947-15.214-11.523c-9.937-4.327-20.963-4.524-31.049-0.558
			c-10.085,3.967-18.833,12.523-22.349,21.939l2.293,0.62c4.06-9.324,11.508-16.509,20.972-20.232
			c9.462-3.723,19.812-3.537,29.135,0.523c6,2.612,11.248,6.748,15.178,11.961l0.964,1.279l1.007-1.247
			c8.88-10.997,24.137-14.734,37.104-9.088c10.183,4.434,17.351,14.05,18.707,25.096l0.097,0.793l0.761,0.244
			c0.956,0.309,1.904,0.666,2.817,1.064c8.614,3.751,14.878,11.139,17.183,20.27l3.133,1.03
			C860.955,225.819,853.801,218.123,844.471,214.06z"/>
		<path class="st1" d="M189.658,152.894l10.715-13.298l16.008,5.947l-9.336-14.3l10.604-13.387l-16.485,4.46l-9.456-14.221
			l-0.852,17.056l-16.447,4.598l15.958,6.082L189.658,152.894z M182.388,130.115l10.875-3.041l0.563-11.278l6.252,9.403l10.9-2.949
			l-7.011,8.852l6.173,9.455l-10.585-3.933l-7.085,8.793l0.469-11.282L182.388,130.115z"/>
		<path class="st1" d="M232.68,96.468l13.884-15.219l18.834,8.344l-10.183-17.907l13.756-15.334l-20.178,4.151L238.46,42.683
			l-2.287,20.473l-20.142,4.32l18.764,8.501L232.68,96.468z M223.973,68.329l14.485-3.107l1.645-14.723l7.431,12.816l14.511-2.985
			l-9.893,11.028l7.324,12.877l-13.545-6l-9.984,10.944l1.521-14.736L223.973,68.329z"/>
		<path class="st1" d="M280.547,135.863l9.511-9.625l12.143,5.97l-6.214-12.02l9.43-9.704l-13.352,2.196l-6.315-11.968
			l-2.038,13.377l-13.333,2.308l12.093,6.072L280.547,135.863z M278.281,117.567l7.632-1.321l1.167-7.658l3.615,6.851l7.643-1.257
			l-5.398,5.555l3.557,6.88l-6.951-3.417l-5.445,5.51l1.102-7.667L278.281,117.567z"/>
		<path class="st1" d="M317.201,94.769l12.343-12.511l15.777,7.741l-8.084-15.605l12.238-12.613l-17.339,2.866l-8.214-15.537
			l-2.632,17.376l-17.314,3.011l15.712,7.873L317.201,94.769z M311.877,70.661l11.614-2.02l1.766-11.656l5.51,10.421l11.631-1.922
			l-8.209,8.461l5.423,10.467l-10.584-5.192l-8.279,8.392l1.668-11.67L311.877,70.661z"/>
		<path class="st1" d="M669.358,118.311l18.604-8.848l14.289,14.839l-2.666-20.427l18.527-9.003l-20.251-3.776l-2.837-20.404
			l-9.85,18.093l-20.282-3.607l14.164,14.958L669.358,118.311z M671.924,88.967l14.585,2.594l7.084-13.011l2.04,14.673l14.563,2.716
			l-13.324,6.474l1.918,14.69l-10.275-10.672l-13.379,6.363l6.974-13.07L671.924,88.967z"/>
		<path class="st1" d="M620.053,140.221l12.037-6.183l9.679,9.457l-2.16-13.358l11.983-6.283l-13.371-2.073l-2.273-13.339
			l-6.104,12.076l-13.389-1.961l9.601,9.537L620.053,140.221z M623.6,122.131l7.664,1.122l3.494-6.913l1.301,7.636l7.654,1.187
			l-6.86,3.597l1.236,7.646l-5.54-5.413l-6.891,3.54l3.437-6.942L623.6,122.131z"/>
		<path class="st1" d="M600.031,412.21c-3.73,0.774-8.664,1.025-13.897,0.7l-0.154,2.496c1.539,0.095,3.056,0.142,4.529,0.142
			c3.74,0,7.201-0.303,10.03-0.891c4.569-0.948,6.953-2.511,7.085-4.641c0.129-2.074-1.929-3.877-6.116-5.36l-0.834,2.357
			c3.718,1.316,4.476,2.502,4.454,2.848C605.108,410.2,604.126,411.359,600.031,412.21z"/>
		<path class="st1" d="M572.248,402.751c-4.569,0.949-6.953,2.511-7.085,4.642c-0.13,2.104,1.989,3.929,6.299,5.423l0.818-2.361
			c-3.837-1.331-4.642-2.576-4.621-2.907c0.021-0.339,1.002-1.498,5.097-2.348c1.677-0.348,3.606-0.584,5.686-0.716l-0.18,2.912
			l2.496,0.154l0.998-16.147c0.28-4.546,2.32-8.715,5.743-11.739c3.324-2.938,7.567-4.437,11.968-4.26
			c-0.365,1.527-0.622,3.324-0.739,5.206c-0.048,0.779-0.144,2.976,0.084,5.157c-1.629,0.006-3.203,0.576-4.443,1.671
			c-1.342,1.187-2.142,2.821-2.252,4.606l-0.972,16.149l2.496,0.15l0.522-8.678c18.841,2.096,31.199,7.36,30.948,11.431
			c-0.085,1.381-1.827,2.817-4.905,4.043l0.926,2.322c4.144-1.65,6.322-3.74,6.476-6.211c0.429-6.951-15.777-12.1-33.294-14.075
			l0.3-4.98c0.068-1.117,0.569-2.142,1.411-2.885c0.842-0.745,1.928-1.119,3.037-1.046l0.206,0.013
			c0.437,1.538,1.172,2.71,2.402,2.787l10.151,0.622c3.307,0,3.99-8.343,4.094-10.016c0.154-2.503,0.044-4.887-0.311-6.712
			c-0.174-0.896-0.704-3.624-2.633-3.743l-10.035-0.62c-1.378-0.057-2.211,1.259-2.679,2.331l-0.248-0.015
			c-10.792-0.643-20.084,7.561-20.75,18.336l-0.311,5.038c-3.579-0.02-7.058,0.084-10.376,0.345l0.195,2.492
			c3.161-0.248,6.546-0.361,10.027-0.346l-0.197,3.192C576.274,402.102,574.12,402.362,572.248,402.751z M613.419,381.516
			c-0.232,3.769-0.992,6.273-1.534,7.281c-0.413-1.067-0.859-3.647-0.626-7.415c0.232-3.768,0.992-6.272,1.534-7.281
			C613.206,375.169,613.653,377.748,613.419,381.516z M601.224,380.762c0.271-4.392,1.258-7.067,1.781-7.657l7.3,0.451
			c-1.149,2.6-1.474,6.572-1.542,7.672c-0.154,2.503-0.044,4.887,0.311,6.712c0.046,0.235,0.117,0.598,0.23,1.005l-7.309-0.451
			C601.552,387.707,600.963,384.978,601.224,380.762z"/>
		<path class="st1" d="M554.006,402.752l-0.793-2.371c-5.158,1.727-7.861,4.007-8.033,6.778
			c-0.487,7.896,20.483,13.468,40.463,14.702c3.055,0.188,6.049,0.282,8.967,0.282c3.263,0,6.43-0.118,9.475-0.354l-0.193-2.492
			c-5.652,0.437-11.74,0.46-18.094,0.067c-22.817-1.409-38.403-7.482-38.121-12.052
			C547.774,405.727,550.081,404.065,554.006,402.752z"/>
		<path class="st1" d="M535.583,397.88v-2.5c-5.39,0-9.417-2.023-9.417-3.833h-2.5c0,1.81-4.027,3.833-9.417,3.833
			c-5.39,0-9.416-2.023-9.416-3.833h-2.5c0,1.81-4.027,3.833-9.417,3.833s-9.417-2.023-9.417-3.833h-2.5
			c0,1.81-4.027,3.833-9.417,3.833v2.5c4.788,0,8.747-1.353,10.667-3.415c1.919,2.062,5.878,3.415,10.667,3.415
			s8.747-1.353,10.667-3.415c1.92,2.062,5.878,3.415,10.666,3.415c4.789,0,8.747-1.353,10.667-3.415
			C526.836,396.528,530.794,397.88,535.583,397.88z"/>
		<path class="st1" d="M514.259,350.926h-2.5c0,1.809-4.027,3.832-9.417,3.832v2.5c4.789,0,8.747-1.353,10.667-3.415
			c1.92,2.062,5.878,3.415,10.667,3.415c4.788,0,8.746-1.353,10.666-3.415c1.92,2.062,5.879,3.415,10.667,3.415
			s8.747-1.353,10.667-3.415c1.92,2.062,5.878,3.415,10.666,3.415v-2.5c-5.39,0-9.416-2.023-9.416-3.832h-2.5
			c0,1.809-4.027,3.832-9.417,3.832s-9.417-2.023-9.417-3.832h-2.5c0,1.809-4.026,3.832-9.416,3.832
			S514.259,352.735,514.259,350.926z"/>
		<path class="st1" d="M456.48,326.455c4.788,0,8.747-1.353,10.667-3.415c1.92,2.062,5.878,3.415,10.667,3.415v-2.5
			c-5.39,0-9.417-2.023-9.417-3.832h-2.5c0,1.809-4.027,3.832-9.417,3.832s-9.417-2.023-9.417-3.832h-2.5
			c0,1.809-4.027,3.832-9.417,3.832v2.5c4.789,0,8.747-1.353,10.667-3.415C447.733,325.102,451.692,326.455,456.48,326.455z"/>
		<path class="st1" d="M450.711,378.711c4.788,0,8.747-1.353,10.667-3.415c1.919,2.062,5.878,3.415,10.667,3.415
			c4.789,0,8.748-1.353,10.667-3.415c1.919,2.062,5.878,3.415,10.667,3.415c4.788,0,8.746-1.353,10.666-3.415
			c1.92,2.062,5.879,3.415,10.667,3.415v-2.5c-5.39,0-9.417-2.023-9.417-3.832h-2.5c0,1.809-4.026,3.832-9.416,3.832
			s-9.417-2.023-9.417-3.832h-2.5c0,1.809-4.027,3.832-9.417,3.832s-9.417-2.023-9.417-3.832h-2.5c0,1.809-4.027,3.832-9.417,3.832
			s-9.417-2.023-9.417-3.832h-2.5c0,1.809-4.027,3.832-9.417,3.832v2.5c4.788,0,8.747-1.353,10.667-3.415
			C441.964,377.359,445.922,378.711,450.711,378.711z"/>
		<path class="st1" d="M401.017,421.732c4.789,0,8.747-1.353,10.667-3.415c1.919,2.062,5.878,3.415,10.667,3.415
			s8.747-1.353,10.667-3.415c1.92,2.062,5.878,3.415,10.667,3.415c4.788,0,8.747-1.353,10.667-3.415
			c1.919,2.062,5.878,3.415,10.667,3.415c4.789,0,8.747-1.353,10.667-3.415c1.919,2.062,5.878,3.415,10.667,3.415
			s8.747-1.353,10.667-3.415c1.92,2.062,5.879,3.415,10.667,3.415v-2.5c-5.39,0-9.417-2.023-9.417-3.832h-2.5
			c0,1.809-4.027,3.832-9.417,3.832s-9.417-2.023-9.417-3.832h-2.5c0,1.809-4.027,3.832-9.417,3.832s-9.417-2.023-9.417-3.832h-2.5
			c0,1.809-4.027,3.832-9.417,3.832s-9.417-2.023-9.417-3.832h-2.5c0,1.809-4.027,3.832-9.417,3.832s-9.417-2.023-9.417-3.832h-2.5
			c0,1.809-4.027,3.832-9.417,3.832s-9.417-2.023-9.417-3.832h-2.5c0,1.809-4.027,3.832-9.417,3.832v2.5
			c4.788,0,8.747-1.353,10.667-3.415C392.27,420.379,396.229,421.732,401.017,421.732z"/>
		<path class="st1" d="M473.872,341.194c4.789,0,8.747-1.353,10.667-3.415c1.92,2.062,5.878,3.415,10.666,3.415
			c4.789,0,8.747-1.353,10.667-3.415c1.92,2.062,5.878,3.415,10.667,3.415v-2.5c-5.39,0-9.417-2.023-9.417-3.832h-2.5
			c0,1.809-4.027,3.832-9.417,3.832s-9.416-2.023-9.416-3.832h-2.5c0,1.809-4.027,3.832-9.417,3.832V341.194z"/>
		<path class="st1" d="M91.528,188.773c-2.522,3.047-5.916,5.757-9.901,7.896l-3.024,1.623l3.359,0.702
			c1.764,0.369,3.586,0.555,5.417,0.555c0,0,0,0,0,0c3.333,0,6.64-0.608,9.827-1.807c12.189-4.583,19.223-16.499,16.416-27.477
			l8.266-4.433l-6.266-1.921c0.999-1.473,2.438-3.592,2.438-3.592l1.803-2.656l-10.815,2.553c-1.396-1.028-3.566-1.691-5.659-1.691
			c-0.988,0-1.867,0.149-2.611,0.443c-2.728,1.076-4.503,2.875-5.278,5.348c-0.749,2.39-0.355,4.863,0.125,6.511
			c-7.141-1.054-13.897-5.358-19.196-12.282l-2.561-3.345l0.321,4.2C75.21,172.731,82.096,184.283,91.528,188.773z M97.372,173.525
			l1.588,0.018c0,0-1.994-5.958-0.994-8.72c0.584-1.615,1.804-2.77,3.729-3.529c0.444-0.175,1.03-0.268,1.693-0.268
			c1.701,0,3.62,0.622,4.463,1.445l0.492,0.48l5.851-1.381l-1.947,3.54l3.172,1.354l-4.775,2.561l0.309,0.986
			c3.119,9.981-3.305,21.134-14.626,25.391c-2.905,1.093-5.916,1.646-8.947,1.646h0c-0.481,0-0.961-0.014-1.439-0.042
			c3.469-2.288,6.396-5.014,8.578-8.007l0.961-1.319l-1.523-0.584c-8.337-3.2-14.768-12.492-16.756-23.781
			C82.976,169.455,90.016,173.044,97.372,173.525z"/>
		
			<rect x="126.476" y="157.274" transform="matrix(0.9389 -0.3441 0.3441 0.9389 -46.5558 54.7103)" class="st1" width="8.779" height="2.5"/>
		
			<rect x="131.35" y="160.097" transform="matrix(0.1003 -0.995 0.995 0.1003 -45.8926 281.3151)" class="st1" width="2.5" height="11.871"/>
		
			<rect x="122.805" y="148.708" transform="matrix(0.8195 -0.573 0.573 0.8195 -62.2118 102.3811)" class="st1" width="17.259" height="2.5"/>
		<path class="st1" d="M561.757,209.187c2.282,0,4.139-1.856,4.139-4.139s-1.856-4.139-4.139-4.139s-4.139,1.856-4.139,4.139
			S559.475,209.187,561.757,209.187z M561.757,203.41c0.903,0,1.639,0.735,1.639,1.639s-0.735,1.639-1.639,1.639
			s-1.639-0.735-1.639-1.639S560.854,203.41,561.757,203.41z"/>
		<path class="st1" d="M575.951,218.774c3.078,0,5.582-2.504,5.582-5.582s-2.504-5.582-5.582-5.582s-5.582,2.504-5.582,5.582
			S572.873,218.774,575.951,218.774z M575.951,210.11c1.699,0,3.082,1.383,3.082,3.082s-1.383,3.082-3.082,3.082
			s-3.082-1.383-3.082-3.082S574.252,210.11,575.951,210.11z"/>
		<path class="st1" d="M591.139,230.697c3.791,0,6.875-3.084,6.875-6.874c0-3.791-3.084-6.875-6.875-6.875
			c-3.79,0-6.874,3.084-6.874,6.875C584.265,227.613,587.349,230.697,591.139,230.697z M591.139,219.448
			c2.412,0,4.375,1.963,4.375,4.375s-1.963,4.374-4.375,4.374s-4.374-1.962-4.374-4.374S588.727,219.448,591.139,219.448z"/>
		<path class="st1" d="M548.265,197.02c-2.282,0-4.139,1.856-4.139,4.139s1.856,4.139,4.139,4.139s4.139-1.856,4.139-4.139
			S550.547,197.02,548.265,197.02z M548.265,202.797c-0.903,0-1.639-0.735-1.639-1.639s0.735-1.639,1.639-1.639
			s1.639,0.735,1.639,1.639S549.168,202.797,548.265,202.797z"/>
		<circle class="st1" cx="103.917" cy="165.438" r="1.94"/>
		
			<ellipse transform="matrix(0.9606 -0.2779 0.2779 0.9606 -77.2943 71.5639)" class="st1" cx="213.751" cy="308.39" rx="2.005" ry="2.005"/>
		
			<ellipse transform="matrix(0.9663 -0.2575 0.2575 0.9663 -79.3569 98.8249)" class="st1" cx="337.611" cy="352.378" rx="2.187" ry="2.187"/>
		<path class="st1" d="M724.585,339.434c0.261-0.998-0.884-2.099-2.565-2.461c-1.688-0.363-3.277,0.157-3.542,1.163
			c-0.265,1.007,0.897,2.112,2.589,2.467C722.751,340.958,724.323,340.433,724.585,339.434z"/>
	</g>
</g>
<g id="Guides" class="st2">
	<line class="st3" x1="485.622" y1="1239.402" x2="355.164" y2="64.371"/>
	<line class="st3" x1="485.622" y1="1239.402" x2="253.951" y2="27.371"/>
	<line class="st3" x1="485.622" y1="1239.402" x2="290.334" y2="27.371"/>
	<line class="st3" x1="485.622" y1="1239.402" x2="53.562" y2="64.371"/>
	<line class="st3" x1="485.622" y1="1239.402" x2="60.978" y2="55.371"/>
	<line class="st3" x1="485.622" y1="1239.402" x2="-43.378" y2="55.371"/>
	<line class="st3" x1="485.622" y1="1239.402" x2="-75.378" y2="138.002"/>
	<line class="st3" x1="485.622" y1="1239.402" x2="89.839" y2="64.371"/>
	<line class="st3" x1="485.622" y1="1239.402" x2="834.664" y2="116.309"/>
	<line class="st3" x1="485.622" y1="1239.402" x2="928.36" y2="126.923"/>
	<line class="st3" x1="485.622" y1="1239.402" x2="1025.623" y2="244.476"/>
	<line class="st3" x1="485.622" y1="1239.402" x2="894.915" y2="120.673"/>
	<circle class="st3" cx="485.622" cy="1239.402" r="918"/>
	<line class="st3" x1="485.622" y1="1239.402" x2="639.371" y2="210.101"/>
	<line class="st3" x1="485.622" y1="1239.402" x2="672.052" y2="205.487"/>
	<line class="st3" x1="485.622" y1="1239.402" x2="712.748" y2="205.487"/>
	<line class="st3" x1="485.622" y1="1239.402" x2="744.179" y2="195.042"/>
	<line class="st3" x1="485.622" y1="1239.402" x2="915.451" y2="292.643"/>
	<line class="st3" x1="485.622" y1="1239.402" x2="538.122" y2="7.319"/>
	<circle class="st3" cx="485.622" cy="1239.402" r="936"/>
	<circle class="st3" cx="485.622" cy="1239.402" r="1044"/>
	<circle class="st3" cx="485.622" cy="1239.402" r="1008"/>
	<circle class="st3" cx="485.622" cy="1239.402" r="1074.6"/>
</g>
</svg>
