<?xml version="1.0" encoding="utf-8"?>
<!-- Generator: Adobe Illustrator 20.1.0, SVG Export Plug-In . SVG Version: 6.00 Build 0)  -->
<svg version="1.1" id="Layer_1" xmlns="http://www.w3.org/2000/svg" xmlns:xlink="http://www.w3.org/1999/xlink" x="0px" y="0px"
	 width="32px" height="32px" viewBox="0 0 32 32" style="enable-background:new 0 0 32 32;" xml:space="preserve">
<style type="text/css">
	.st0{fill:#FFFFFF;}
</style>
<g>
	<path class="st0" d="M16,7c2.9,0,3.3,0,4.4,0.1c1.1,0,1.7,0.2,2,0.4c0.5,0.2,0.9,0.4,1.3,0.8c0.4,0.4,0.6,0.8,0.8,1.3
		c0.2,0.4,0.3,1,0.4,2C25,12.7,25,13.1,25,16s0,3.3-0.1,4.4c0,1.1-0.2,1.7-0.4,2c-0.2,0.5-0.4,0.9-0.8,1.3c-0.4,0.4-0.8,0.6-1.3,0.8
		c-0.4,0.2-1,0.3-2,0.4C19.3,25,18.9,25,16,25s-3.3,0-4.4-0.1c-1.1,0-1.7-0.2-2-0.4c-0.5-0.2-0.9-0.4-1.3-0.8
		c-0.4-0.4-0.6-0.8-0.8-1.3c-0.2-0.4-0.3-1-0.4-2C7,19.3,7,18.9,7,16s0-3.3,0.1-4.4c0-1.1,0.2-1.7,0.4-2C7.6,9,7.9,8.6,8.2,8.2
		C8.6,7.9,9,7.6,9.5,7.4c0.4-0.2,1-0.3,2-0.4C12.7,7,13.1,7,16,7 M16,5c-3,0-3.4,0-4.5,0.1c-1.2,0.1-2,0.2-2.7,0.5
		C8.1,5.9,7.5,6.2,6.8,6.8c-0.6,0.6-1,1.2-1.3,1.9c-0.3,0.7-0.5,1.5-0.5,2.7C5,12.6,5,13,5,16c0,3,0,3.4,0.1,4.5
		c0.1,1.2,0.2,2,0.5,2.7c0.3,0.7,0.7,1.3,1.3,1.9c0.6,0.6,1.2,1,1.9,1.3c0.7,0.3,1.5,0.5,2.7,0.5C12.6,27,13,27,16,27s3.4,0,4.5-0.1
		c1.2-0.1,2-0.2,2.7-0.5c0.7-0.3,1.3-0.7,1.9-1.3c0.6-0.6,1-1.2,1.3-1.9c0.3-0.7,0.5-1.5,0.5-2.7C27,19.4,27,19,27,16s0-3.4-0.1-4.5
		c-0.1-1.2-0.2-2-0.5-2.7c-0.3-0.7-0.7-1.3-1.3-1.9c-0.6-0.6-1.2-1-1.9-1.3c-0.7-0.3-1.5-0.5-2.7-0.5C19.4,5,19,5,16,5L16,5z"/>
	<path class="st0" d="M16,10.4c-3.1,0-5.6,2.5-5.6,5.6s2.5,5.6,5.6,5.6s5.6-2.5,5.6-5.6S19.1,10.4,16,10.4z M16,19.7
		c-2,0-3.7-1.6-3.7-3.7s1.6-3.7,3.7-3.7s3.7,1.6,3.7,3.7S18,19.7,16,19.7z"/>
	<circle class="st0" cx="21.9" cy="10.1" r="1.3"/>
</g>
</svg>
