<?xml version="1.0" encoding="utf-8"?>
<!-- Generator: Adobe Illustrator 18.1.0, SVG Export Plug-In . SVG Version: 6.00 Build 0)  -->
<!DOCTYPE svg PUBLIC "-//W3C//DTD SVG 1.1//EN" "http://www.w3.org/Graphics/SVG/1.1/DTD/svg11.dtd">
<svg version="1.1" id="Layer_1" xmlns="http://www.w3.org/2000/svg" xmlns:xlink="http://www.w3.org/1999/xlink" x="0px" y="0px"
	 width="32px" height="32px" viewBox="8 -9 32 32" enable-background="new 8 -9 32 32" xml:space="preserve">
<g id="Lozenge">
	<g>
		<path fill="#FFFFFF" d="M34.8,3.1c0,0-0.2-1.5-0.9-2.2C33.1,0,32.1,0,31.7,0C28.6-0.2,24-0.2,24-0.2h0c0,0-4.6,0-7.7,0.2
			C15.9,0,14.9,0,14.1,0.9c-0.7,0.7-0.9,2.2-0.9,2.2S13,4.9,13,6.7v1.7c0,1.8,0.2,3.6,0.2,3.6s0.2,1.5,0.9,2.2
			c0.8,0.9,1.9,0.8,2.4,0.9c1.8,0.2,7.5,0.2,7.5,0.2s4.6,0,7.7-0.2c0.4-0.1,1.4-0.1,2.2-0.9c0.7-0.7,0.9-2.2,0.9-2.2S35,10.1,35,8.3
			V6.7C35,4.9,34.8,3.1,34.8,3.1z M21.7,10.4l0-6.2l5.9,3.1L21.7,10.4z"/>
	</g>
</g>
</svg>
