<?xml version="1.0" encoding="utf-8"?>
<!-- Generator: Adobe Illustrator 18.1.0, SVG Export Plug-In . SVG Version: 6.00 Build 0)  -->
<!DOCTYPE svg PUBLIC "-//W3C//DTD SVG 1.1//EN" "http://www.w3.org/Graphics/SVG/1.1/DTD/svg11.dtd">
<svg version="1.1" id="Layer_1" xmlns="http://www.w3.org/2000/svg" xmlns:xlink="http://www.w3.org/1999/xlink" x="0px" y="0px"
	 width="32px" height="32px" viewBox="7 -7 32 32" enable-background="new 7 -7 32 32" xml:space="preserve">
<g>
	<path fill="#FFFFFF" d="M25.1,18.6c-1.7,0-3.4-1-3.9-1.9c0,0-1,3.6-1.1,4.4c-0.7,2.5-2.8,5.1-2.9,5.2c-0.1,0.1-0.4,0.1-0.4-0.1
		c0-0.4-0.6-3.5,0-6.1c0.4-1.3,2.1-8.7,2.1-8.7s-0.5-1-0.5-2.5c0-2.4,1.3-4.1,3-4.1c1.5,0,2.2,1.1,2.2,2.4c0,1.5-1,3.6-1.5,5.7
		c-0.4,1.7,0.8,3,2.5,3c3,0,5.1-3.9,5.1-8.5c0-3.5-2.3-6.2-6.7-6.2c-4.8,0-7.9,3.6-7.9,7.6c0,1.5,0.4,2.4,1.1,3.2
		c0.2,0.4,0.4,0.5,0.2,0.8c-0.1,0.2-0.2,1-0.4,1.3c-0.1,0.4-0.5,0.6-0.8,0.4c-2.2-1-3.3-3.4-3.3-6.1c0-4.6,3.9-10.1,11.4-10.1
		c6.1,0,10.2,4.4,10.2,9.2C33.7,14,30.2,18.6,25.1,18.6z"/>
</g>
</svg>
