<?xml version="1.0" encoding="utf-8"?>
<!-- Generator: Adobe Illustrator 18.1.0, SVG Export Plug-In . SVG Version: 6.00 Build 0)  -->
<!DOCTYPE svg PUBLIC "-//W3C//DTD SVG 1.1//EN" "http://www.w3.org/Graphics/SVG/1.1/DTD/svg11.dtd">
<svg version="1.1" id="Layer_1" xmlns="http://www.w3.org/2000/svg" xmlns:xlink="http://www.w3.org/1999/xlink" x="0px" y="0px"
	 width="32px" height="32px" viewBox="8 -9 32 32" enable-background="new 8 -9 32 32" xml:space="preserve">
<g>
	<path fill="#FFFFFF" d="M32.4,2.7c0.3,6.1-4.2,12.8-12.2,12.8c-2.4,0-4.7-0.7-6.6-1.9c2.3,0.3,4.6-0.4,6.4-1.8c-1.9,0-3.5-1.3-4-3
		c0.7,0.1,1.3,0.1,1.9-0.1c-2.1-0.4-3.5-2.3-3.5-4.3c0.6,0.3,1.2,0.5,2,0.5c-1.9-1.3-2.5-3.8-1.3-5.8c2.1,2.6,5.3,4.3,8.9,4.5
		c-0.6-2.7,1.4-5.3,4.2-5.3c1.2,0,2.4,0.5,3.1,1.4c1-0.2,1.9-0.6,2.7-1c-0.3,1-1,1.9-1.9,2.4C33,1,33.8,0.8,34.6,0.4
		C33.9,1.4,33.2,2.1,32.4,2.7z"/>
</g>
</svg>
