<?xml version="1.0" encoding="utf-8"?>
<!-- Generator: Adobe Illustrator 19.1.0, SVG Export Plug-In . SVG Version: 6.00 Build 0)  -->
<svg version="1.1" id="Layer_1" xmlns="http://www.w3.org/2000/svg" xmlns:xlink="http://www.w3.org/1999/xlink" x="0px" y="0px"
	 width="32px" height="32px" viewBox="-289 183 32 32" style="enable-background:new -289 183 32 32;" xml:space="preserve">
<style type="text/css">
	.st0{fill:#FFFFFF;}
</style>
<g>
	<g>
		<path class="st0" d="M-277.2,197.6v2.9c0,0,2.8,0,3.9,0c-0.6,1.9-1.6,2.9-3.9,2.9c-2.4,0-4.3-1.9-4.3-4.3c0-2.4,1.9-4.3,4.3-4.3
			c1.3,0,2.1,0.4,2.8,1.1c0.6-0.6,0.6-0.7,2.1-2.1c-1.3-1.2-3-1.9-4.9-1.9c-4,0-7.3,3.3-7.3,7.3c0,4,3.3,7.3,7.3,7.3
			c6,0,7.5-5.3,7-8.8C-271.6,197.6-277.2,197.6-277.2,197.6z M-264,197.7v-2.5h-1.8v2.5h-2.6v1.8h2.6v2.6h1.8v-2.6h2.5v-1.8H-264z"
			/>
	</g>
</g>
</svg>
