<?xml version="1.0" encoding="utf-8"?>
<!-- Generator: Adobe Illustrator 18.1.0, SVG Export Plug-In . SVG Version: 6.00 Build 0)  -->
<!DOCTYPE svg PUBLIC "-//W3C//DTD SVG 1.1//EN" "http://www.w3.org/Graphics/SVG/1.1/DTD/svg11.dtd">
<svg version="1.1" id="Layer_1" xmlns="http://www.w3.org/2000/svg" xmlns:xlink="http://www.w3.org/1999/xlink" x="0px" y="0px"
	 width="32px" height="32px" viewBox="-379 291 32 32" enable-background="new -379 291 32 32" xml:space="preserve">
<path id="linkedin-icon" fill="#FFFFFF" d="M-367.6,299.2c0,1.2-1,2.2-2.2,2.2s-2.2-1-2.2-2.2c0-1.2,1-2.2,2.2-2.2
	C-368.6,297-367.6,298-367.6,299.2z M-367.9,303h-3.7v12h3.7V303z M-362,303h-3.6v12h3.6c0,0,0-4.5,0-6.3c0-1.7,0.8-2.7,2.3-2.7
	c1.4,0,2,1,2,2.7c0,1.7,0,6.3,0,6.3h3.7c0,0,0-4.4,0-7.6c0-3.2-1.8-4.8-4.4-4.8s-3.6,2-3.6,2L-362,303L-362,303z"/>
</svg>
